<svg width="31" height="36" viewBox="0 0 31 36" fill="none" xmlns="http://www.w3.org/2000/svg">
<g clip-path="url(#clip0_17_58)">
<path d="M28.0091 25.7485C27.8471 28.52 27.6851 31.1799 27.5401 33.8398C27.4421 35.6489 27.0882 35.9959 25.2677 35.9959C24.2082 35.9959 23.1508 36.0041 22.0913 35.9938C20.8997 35.9835 20.4328 35.5415 20.3668 34.4098C20.2197 31.8511 20.0385 29.2923 19.9361 26.7336C19.9042 25.9261 19.5972 25.6081 18.7786 25.5131C16.8089 25.2839 16.7428 25.1703 16.9602 23.2744C17.0838 22.1902 17.1627 21.0936 17.3823 20.0259C17.9195 17.43 20.015 16.0856 22.6989 16.4697C23.4557 16.5792 24.2593 16.5771 25.0161 16.4718C27.7789 16.0835 29.8509 17.4094 30.4052 20.0755C30.6695 21.3435 30.7569 22.6466 30.968 23.925C31.1172 24.8295 30.7164 25.2797 29.836 25.4284C29.2498 25.5275 28.6635 25.6329 28.0091 25.7485Z" fill="#4BABE7"/>
<path d="M20.6482 14.766C17.5635 15.7325 15.8475 17.746 15.5959 20.9016C15.5128 21.9569 15.3145 23.0039 15.2442 24.0592C15.1376 25.6391 15.8752 26.6345 17.4612 26.9298C18.1327 27.0537 18.3438 27.3263 18.3715 27.9231C18.4376 29.2552 18.5058 30.5872 18.6358 31.9151C18.7062 32.6317 18.3779 32.9745 17.7149 32.9911C16.2333 33.0282 14.7475 33.0654 13.2702 32.989C12.215 32.9353 11.9357 32.165 11.8909 31.246C11.7609 28.5819 11.5989 25.9199 11.4454 23.2579C11.4369 23.0927 11.3878 22.9296 11.3516 22.7334C10.6673 22.6177 10.0107 22.5248 9.36267 22.3926C8.62934 22.2419 8.29252 21.8185 8.40338 21.0585C8.58884 19.774 8.69329 18.4771 8.91073 17.1967C9.24755 15.2265 10.42 13.7231 12.4239 13.4195C14.4149 13.118 16.504 13.2666 18.5335 13.4195C19.2881 13.4773 19.9959 14.1092 20.7249 14.4789C20.6993 14.5739 20.6738 14.6689 20.6482 14.766Z" fill="#4BABE7"/>
<path d="M9.94677 24.1521C10.0256 25.732 10.0683 27.3015 10.1983 28.8669C10.2623 29.6414 9.89561 29.9676 9.19853 29.9842C7.78731 30.0193 6.37395 30.0358 4.96486 29.9821C4.0546 29.9491 3.60054 29.3956 3.54511 28.5055C3.38096 25.8456 3.17632 23.1877 3.03562 20.5257C3.00151 19.869 2.85229 19.4869 2.08912 19.5324C1.8525 19.5468 1.60734 19.4436 1.36645 19.3961C0.0639517 19.142 -0.0916664 18.9644 0.036239 17.682C0.151354 16.5275 0.266469 15.369 0.471117 14.2269C0.805803 12.36 1.91005 11.0487 3.77108 10.4415C4.29975 10.268 4.92649 10.3527 5.50846 10.3568C6.41445 10.3651 7.37374 10.6005 8.21792 10.3899C9.87856 9.97476 11.0681 10.6005 12.3493 11.6434C11.957 11.7942 11.682 11.8933 11.4156 12.0048C8.93632 13.0374 7.51444 14.8341 7.2032 17.4465C7.08169 18.4647 6.93887 19.4787 6.81522 20.4947C6.56581 22.5227 7.27142 23.4892 9.31791 23.9436C9.51616 23.9849 9.70802 24.0716 9.94677 24.1521Z" fill="#4BABE7"/>
<path d="M19.2647 10.5302C19.2625 8.02312 21.3047 6.02404 23.8714 6.02197C26.421 6.01991 28.5143 8.04377 28.5207 10.5158C28.5293 12.9816 26.4316 15.022 23.8842 15.0261C21.3218 15.0323 19.2689 13.0353 19.2647 10.5302Z" fill="#4BABE7"/>
<path d="M9.28593 8.34948C6.90476 9.51217 4.21875 8.76458 2.99086 6.65192C1.77789 4.56403 2.49842 1.92475 4.62805 0.656736C6.69372 -0.574104 9.45434 -0.0206389 10.8379 1.88964C11.2535 2.46582 11.4454 2.90157 10.7888 3.5521C9.46074 4.87381 9.09408 6.57344 9.28593 8.34948Z" fill="#4BABE7"/>
<path d="M15.451 11.9429C13.2084 11.9594 11.2877 10.4208 10.872 8.29579C10.4712 6.25334 11.7034 4.13241 13.7435 3.34765C15.7964 2.55875 18.1264 3.28776 19.3244 5.05348C19.7017 5.61107 19.7721 6.00552 19.2178 6.53833C18.1498 7.56472 17.6979 8.89675 17.6126 10.3341C17.538 11.6042 17.3781 11.8004 16.0841 11.9387C15.8752 11.9615 15.6621 11.9429 15.451 11.9429Z" fill="#4BABE7"/>
</g>
<defs>
<clipPath id="clip0_17_58">
<rect width="31" height="36" fill="white"/>
</clipPath>
</defs>
</svg>
