<svg width="28" height="34" viewBox="0 0 28 34" fill="none" xmlns="http://www.w3.org/2000/svg">
<g clip-path="url(#clip0_17_69)">
<path d="M8.54827 16.6059C8.12243 17.6848 7.66505 18.7742 7.27076 19.8901C7.10253 20.3661 7.06047 20.8896 6.99213 21.3973C6.95532 21.6565 6.88172 21.794 6.59783 21.868C4.94181 22.3123 3.93768 23.5974 3.87985 25.3373C3.85356 26.0671 3.86933 26.7969 3.87985 27.5215C3.8851 28.0662 4.05333 28.2354 4.58431 28.246C5.04695 28.2566 5.50433 28.2407 5.96697 28.246C6.3192 28.2513 6.56629 28.0821 6.57155 27.7383C6.5768 27.3628 6.3192 27.1936 5.94594 27.1989C5.61999 27.2042 5.29404 27.1989 4.95232 27.1989C4.95232 26.3791 4.87346 25.6123 4.96809 24.8719C5.12581 23.6555 6.29817 22.7353 7.4863 22.7829C8.74278 22.8305 9.81 23.7666 9.93617 25.02C10.0045 25.7181 9.94669 26.432 9.94669 27.1989C9.56817 27.1989 9.22645 27.1936 8.88473 27.1989C8.53775 27.2042 8.29592 27.3734 8.30118 27.733C8.30643 28.0926 8.55352 28.2513 8.9005 28.2513C9.39468 28.2566 9.88886 28.2566 10.383 28.2513C10.7878 28.2513 10.9876 28.0345 10.9824 27.6325C10.9771 26.7546 11.0034 25.8767 10.9613 24.9988C10.8877 23.5498 9.8468 22.2964 8.39055 21.8786C8.09089 21.794 8.00677 21.7041 8.04357 21.3815C8.22757 19.8742 8.75855 18.5045 9.59971 17.1718C10.1359 17.8011 10.6459 18.3935 11.1558 18.9858C11.608 19.5146 12.0496 20.0435 12.507 20.5723C13.3902 21.593 14.6046 21.593 15.4825 20.5776C16.4867 19.4141 17.4803 18.2507 18.5002 17.066C19.294 17.8646 19.9144 18.7108 20.1194 19.8372C19.436 20.1334 18.9208 20.5618 18.742 21.3074C18.5002 22.3281 19.0732 23.3911 20.0616 23.7243C21.0552 24.0575 22.1487 23.5656 22.5588 22.5926C22.9636 21.6406 22.5956 20.5089 21.6545 20.0488C21.2602 19.8584 21.1236 19.6098 21.0132 19.2238C20.887 18.7689 20.6925 18.3194 20.4664 17.9016C20.2403 17.4838 19.9407 17.1083 19.6147 16.6324C19.8303 16.68 19.988 16.717 20.1457 16.7593C24.199 17.8382 26.9643 21.0906 27.4427 25.3109C27.6005 26.7229 27.795 28.1349 27.9632 29.547C28.1525 31.123 27.1904 32.4821 25.6448 32.7994C19.9617 33.9629 14.2313 34.3172 8.45889 33.7091C6.40332 33.4922 4.353 33.1538 2.31319 32.7941C0.835911 32.535 -0.152449 31.2287 0.00526832 29.7374C0.2103 27.7965 0.410075 25.845 0.79911 23.9358C1.55615 20.1704 4.6474 17.3939 8.35375 16.6112C8.45364 16.5901 8.55352 16.6059 8.54827 16.6059ZM17.0807 29.1503C17.0913 29.346 17.107 29.4782 17.107 29.6104C17.1123 30.9802 16.9651 30.7951 18.3898 30.8109C18.721 30.8162 18.8787 30.684 18.8629 30.3403C18.8524 29.9648 18.8577 29.5893 18.8577 29.1874C19.0312 29.1715 19.1626 29.1556 19.2888 29.1503C20.5821 29.1292 20.5768 29.1292 20.5032 27.8388C20.4874 27.5109 20.356 27.3522 20.0248 27.3575C19.6515 27.3681 19.2783 27.3575 18.8577 27.3575C18.8577 27.1671 18.8577 27.0402 18.8577 26.908C18.8472 25.6388 19.0207 25.7604 17.6906 25.7392C17.27 25.7339 17.0755 25.8714 17.1018 26.3104C17.1228 26.6647 17.107 27.0191 17.107 27.4104C16.6654 27.4104 16.3027 27.4263 15.9452 27.4051C15.451 27.3734 15.4247 27.7171 15.5036 28.0239C15.6035 28.4099 15.0988 29.071 15.9452 29.1398C16.3027 29.1768 16.6654 29.1503 17.0807 29.1503Z" fill="#4BABE7"/>
<path d="M20.8765 8.63086C20.8344 10.6405 20.1036 12.7929 18.3793 14.5117C15.7401 17.1401 11.8498 16.9867 9.36313 14.1944C6.42959 10.8996 6.43485 5.41014 9.37364 2.17355C12.1074 -0.835624 16.3815 -0.70341 18.9313 2.46971C20.214 4.06685 20.8817 6.04476 20.8765 8.63086Z" fill="#4BABE7"/>
<path d="M19.7304 21.7517C19.7304 21.1806 20.172 20.7522 20.7398 20.7628C21.2655 20.7733 21.7071 21.2282 21.7071 21.757C21.7071 22.2964 21.2234 22.7671 20.682 22.7513C20.151 22.7354 19.7251 22.2964 19.7304 21.7517Z" fill="#4BABE7"/>
</g>
<defs>
<clipPath id="clip0_17_69">
<rect width="28" height="34" fill="white"/>
</clipPath>
</defs>
</svg>
