<svg width="204" height="200" viewBox="0 0 204 200" fill="none" xmlns="http://www.w3.org/2000/svg">
<g clip-path="url(#clip0_188_66)">
<path d="M203.081 134.125H125.188V89.0361H203.081V134.125ZM125.663 133.649H202.606V89.5114H125.663V133.649Z" fill="#E0E0E0"/>
<path d="M187.009 113.075H135.608V114.582H187.009V113.075Z" fill="#F0F0F0"/>
<path d="M190.55 118.699H135.608V120.344H190.55V118.699Z" fill="#F0F0F0"/>
<path d="M190.55 124.384H135.608V126.029H190.55V124.384Z" fill="#F0F0F0"/>
<path d="M153.572 104.918H135.608V108.83H153.572V104.918Z" fill="#F0F0F0"/>
<path d="M202.843 89.2737H125.425V96.4518H202.843V89.2737Z" fill="#E0E0E0"/>
<path d="M196.887 95.3822C196.787 95.2871 197.785 94.0845 199.116 92.6964C200.447 91.3083 201.603 90.2578 201.702 90.3528C201.802 90.4479 200.804 91.6506 199.473 93.0387C198.142 94.4267 196.987 95.4773 196.887 95.3822Z" fill="white"/>
<path d="M201.698 95.3822C201.598 95.4773 200.443 94.4267 199.112 93.0387C197.781 91.6506 196.783 90.4479 196.882 90.3528C196.982 90.2578 198.137 91.3083 199.468 92.6964C200.799 94.0845 201.798 95.2871 201.698 95.3822Z" fill="white"/>
<path d="M107.214 0H29.7959V44.6131H107.214V0Z" fill="#E6E6E6"/>
<path d="M91.3842 23.8016H39.9829V25.3085H91.3842V23.8016Z" fill="#F0F0F0"/>
<path d="M94.9257 29.4204H39.9829V31.0652H94.9257V29.4204Z" fill="#F0F0F0"/>
<path d="M94.9257 35.1058H39.9829V36.7505H94.9257V35.1058Z" fill="#F0F0F0"/>
<path d="M57.947 15.6395H39.9829V19.5518H57.947V15.6395Z" fill="#F0F0F0"/>
<path d="M107.214 0H29.7959V7.17803H107.214V0Z" fill="#E0E0E0"/>
<path d="M100.996 6.07045C100.896 5.97537 101.895 4.7727 103.226 3.38463C104.557 1.99656 105.712 0.945998 105.812 1.04107C105.911 1.13614 104.913 2.33882 103.582 3.72689C102.251 5.11496 101.096 6.16552 100.996 6.07045Z" fill="white"/>
<path d="M105.807 6.07045C105.707 6.16552 104.552 5.11496 103.221 3.72689C101.89 2.33882 100.892 1.13614 100.991 1.04107C101.091 0.945998 102.246 1.99656 103.577 3.38463C104.909 4.7727 105.907 5.97537 105.807 6.07045Z" fill="white"/>
<path d="M77.8935 82.8753H0V37.7869H77.8935V82.8753ZM0.475366 82.4H77.4181V38.2622H0.475366V82.4Z" fill="#E0E0E0"/>
<path d="M61.8261 61.8261H10.4248V63.3331H61.8261V61.8261Z" fill="#F0F0F0"/>
<path d="M65.3676 67.445H10.4248V69.0897H65.3676V67.445Z" fill="#F0F0F0"/>
<path d="M65.3676 73.1303H10.4248V74.7751H65.3676V73.1303Z" fill="#F0F0F0"/>
<path d="M28.3889 53.6641H10.4248V57.5764H28.3889V53.6641Z" fill="#F0F0F0"/>
<path d="M77.6559 38.0245H0.237793V45.2026H77.6559V38.0245Z" fill="#E0E0E0"/>
<path d="M167.79 93.205H76.377V175.044H167.79V93.205Z" fill="#E6E6E6"/>
<path d="M80.9739 67.4259H9.36475V141.825H80.9739V67.4259Z" fill="#F0F0F0"/>
<path d="M80.9739 67.4259H9.36475V75.5309H80.9739V67.4259Z" fill="#E0E0E0"/>
<path d="M15.2782 71.3952C15.2782 72.2652 14.6032 72.9687 13.7761 72.9687C12.9489 72.9687 12.2739 72.2652 12.2739 71.3952C12.2739 70.5253 12.9489 69.8218 13.7761 69.8218C14.6032 69.8218 15.2782 70.5253 15.2782 71.3952Z" fill="white"/>
<path d="M21.3771 71.3952C21.3771 72.2652 20.7021 72.9687 19.875 72.9687C19.0478 72.9687 18.3728 72.2652 18.3728 71.3952C18.3728 70.5253 19.0478 69.8218 19.875 69.8218C20.7021 69.8218 21.3771 70.5253 21.3771 71.3952Z" fill="white"/>
<path d="M27.4762 71.3952C27.4762 72.2652 26.8012 72.9687 25.9741 72.9687C25.1469 72.9687 24.4719 72.2652 24.4719 71.3952C24.4719 70.5253 25.1469 69.8218 25.9741 69.8218C26.8012 69.8218 27.4762 70.5253 27.4762 71.3952Z" fill="white"/>
<path d="M192.856 16.2718H101.443V107.38H192.856V16.2718Z" fill="#F0F0F0"/>
<path d="M192.856 16.2718H101.443V26.9438H192.856V16.2718Z" fill="#E0E0E0"/>
<path d="M109.23 21.5008C109.23 22.6417 108.346 23.5687 107.252 23.5687C106.159 23.5687 105.275 22.6417 105.275 21.5008C105.275 20.3599 106.159 19.433 107.252 19.433C108.346 19.433 109.23 20.3599 109.23 21.5008Z" fill="white"/>
<path d="M116.679 20.0985C117.487 20.9066 117.515 22.1901 116.74 22.9602C115.966 23.7351 114.687 23.7065 113.879 22.8984C113.071 22.0903 113.042 20.8068 113.817 20.0367C114.592 19.2666 115.87 19.2904 116.679 20.0985Z" fill="white"/>
<path d="M125.288 21.5008C125.288 22.6417 124.403 23.5687 123.31 23.5687C122.217 23.5687 121.333 22.6417 121.333 21.5008C121.333 20.3599 122.217 19.433 123.31 19.433C124.403 19.433 125.288 20.3599 125.288 21.5008Z" fill="white"/>
<path d="M173.109 199.216C173.109 199.283 140.1 199.34 99.3896 199.34C58.6792 199.34 25.665 199.283 25.665 199.216C25.665 199.15 58.6649 199.093 99.3896 199.093C140.114 199.093 173.109 199.15 173.109 199.216Z" fill="#263238"/>
<path d="M140.946 141.022C133.601 135.893 131.938 126.367 132.228 117.81C132.275 116.379 132.118 114.877 132.798 113.622C133.478 112.367 135.066 111.511 136.344 112.115C137.404 112.614 137.87 113.85 138.46 114.867C139.249 116.227 140.428 117.349 141.811 118.067C142.719 118.537 143.846 118.827 144.744 118.333C145.975 117.653 146.123 115.951 146.113 114.53C146.094 111.882 146.08 109.234 146.066 106.582C146.056 105.16 146.051 103.711 146.493 102.361C146.936 101.011 147.91 99.7603 149.265 99.38C150.615 98.9997 152.288 99.7793 152.573 101.172C152.692 101.752 152.573 102.351 152.611 102.941C152.649 103.53 152.925 104.181 153.486 104.348C154.052 104.514 154.622 104.11 155.045 103.696C156.514 102.261 157.508 100.412 158.439 98.5766C159.371 96.7417 160.274 94.8545 161.605 93.2906C162.936 91.7266 164.776 90.4859 166.811 90.3718C168.845 90.2577 171.013 91.5127 171.531 93.5092C172.044 95.5105 170.88 97.5451 169.606 99.1661C167.719 101.571 165.484 103.701 163.003 105.46C162.556 105.778 162.071 106.121 161.9 106.648C161.591 107.594 162.489 108.536 163.426 108.849C164.486 109.201 165.636 109.092 166.744 109.225C167.852 109.353 169.054 109.843 169.473 110.893C170.053 112.348 168.84 113.869 167.642 114.867C165.247 116.864 162.513 118.442 159.599 119.512C158.553 119.892 157.455 120.23 156.609 120.966C155.768 121.703 155.259 122.977 155.768 123.98C156.276 124.983 157.584 125.302 158.682 125.097C159.775 124.893 160.759 124.299 161.8 123.904C163.754 123.167 166.273 123.3 167.528 124.988C168.351 126.096 168.422 127.641 168.008 128.967C167.595 130.288 166.749 131.429 165.855 132.48C162.727 136.154 158.72 139.111 154.185 140.68C149.655 142.249 145.457 142.676 140.955 141.032" fill="#2699F9"/>
<path d="M169.477 91.5555C169.477 91.5555 169.435 91.603 169.34 91.6886C169.235 91.7837 169.097 91.9073 168.916 92.0641C168.546 92.3922 167.994 92.877 167.305 93.5235C165.922 94.807 163.982 96.7418 161.876 99.3848C160.821 100.702 159.718 102.194 158.568 103.815C157.422 105.441 156.205 107.186 154.993 109.068C153.786 110.95 152.573 112.966 151.485 115.143C150.938 116.232 150.448 117.368 149.949 118.528C149.455 119.688 148.951 120.862 148.442 122.05C146.422 126.818 144.649 131.424 143.38 135.727C142.101 140.029 141.345 144.012 141.012 147.387C140.67 150.767 140.741 153.524 140.879 155.416C140.955 156.362 141.027 157.099 141.093 157.593C141.122 157.831 141.141 158.016 141.16 158.159C141.174 158.287 141.179 158.354 141.174 158.354C141.174 158.354 141.155 158.292 141.136 158.164C141.112 158.026 141.084 157.841 141.046 157.603C140.96 157.108 140.875 156.376 140.784 155.426C140.613 153.534 140.518 150.767 140.837 147.373C141.146 143.984 141.892 139.976 143.156 135.66C144.416 131.339 146.189 126.718 148.209 121.95C148.718 120.762 149.222 119.583 149.721 118.423C150.22 117.268 150.715 116.122 151.266 115.029C152.359 112.842 153.581 110.822 154.798 108.94C156.015 107.057 157.241 105.313 158.397 103.692C159.556 102.071 160.669 100.583 161.738 99.2707C163.868 96.6324 165.836 94.7167 167.243 93.4522C167.942 92.82 168.503 92.3446 168.888 92.0309C169.073 91.8788 169.216 91.7647 169.325 91.6744C169.425 91.5935 169.477 91.5555 169.482 91.5603L169.477 91.5555Z" fill="#263238"/>
<path d="M151.337 115.015C151.337 115.015 151.271 114.801 151.2 114.406C151.124 114.012 151.038 113.441 150.938 112.733C150.738 111.316 150.525 109.353 150.301 107.19C150.078 105.023 149.84 103.069 149.617 101.662C149.507 100.958 149.412 100.388 149.346 99.998C149.279 99.6035 149.251 99.3848 149.265 99.38C149.284 99.38 149.346 99.5892 149.445 99.9742C149.545 100.359 149.669 100.925 149.802 101.629C150.073 103.036 150.339 104.994 150.563 107.162C150.776 109.301 150.971 111.236 151.124 112.709C151.195 113.375 151.257 113.94 151.304 114.392C151.347 114.787 151.361 115.01 151.342 115.015H151.337Z" fill="#263238"/>
<path d="M169.611 111.602C169.611 111.602 169.349 111.649 168.883 111.687C168.413 111.73 167.738 111.787 166.901 111.882C165.228 112.063 162.922 112.396 160.398 112.871C157.874 113.351 155.606 113.883 153.981 114.316C153.163 114.525 152.507 114.715 152.055 114.844C151.604 114.972 151.347 115.034 151.342 115.02C151.338 115.001 151.58 114.905 152.027 114.744C152.474 114.587 153.12 114.368 153.933 114.135C155.554 113.655 157.822 113.094 160.355 112.609C162.889 112.134 165.204 111.83 166.887 111.697C167.728 111.625 168.413 111.597 168.883 111.583C169.354 111.573 169.615 111.583 169.615 111.597L169.611 111.602Z" fill="#263238"/>
<path d="M143.38 135.318C143.38 135.318 143.328 135.246 143.256 135.094C143.171 134.914 143.071 134.7 142.943 134.434C142.672 133.858 142.306 133.017 141.868 131.971C140.989 129.88 139.862 126.947 138.66 123.7C137.457 120.448 136.364 117.511 135.527 115.405C135.118 114.378 134.781 113.536 134.529 112.909C134.419 112.638 134.334 112.415 134.262 112.229C134.205 112.072 134.177 111.987 134.186 111.987C134.196 111.987 134.239 112.058 134.31 112.21C134.396 112.391 134.495 112.605 134.624 112.871C134.895 113.446 135.261 114.288 135.698 115.333C136.577 117.425 137.704 120.358 138.907 123.609C140.105 126.861 141.203 129.794 142.039 131.905C142.448 132.931 142.786 133.773 143.038 134.4C143.147 134.671 143.233 134.899 143.304 135.08C143.361 135.237 143.389 135.322 143.38 135.322V135.318Z" fill="#263238"/>
<path d="M167.661 127.493C167.661 127.493 167.581 127.536 167.419 127.593C167.229 127.655 166.996 127.736 166.715 127.831C166.064 128.04 165.185 128.325 164.115 128.672C161.919 129.385 158.9 130.402 155.563 131.534C152.226 132.665 149.193 133.654 146.983 134.324C145.875 134.657 144.982 134.918 144.359 135.085C144.069 135.161 143.831 135.223 143.641 135.275C143.475 135.313 143.389 135.332 143.385 135.322C143.385 135.313 143.465 135.28 143.627 135.223C143.817 135.161 144.05 135.08 144.33 134.985C144.982 134.776 145.861 134.491 146.931 134.144C149.127 133.43 152.146 132.413 155.483 131.282C158.82 130.15 161.852 129.162 164.063 128.496C165.171 128.163 166.064 127.902 166.687 127.736C166.977 127.66 167.215 127.598 167.405 127.545C167.571 127.503 167.657 127.488 167.661 127.498V127.493Z" fill="#263238"/>
<path d="M157.755 12.1789L155.307 13.0536L154.261 9.85436C152.331 3.95506 146.165 0.798633 140.523 2.81418C134.88 4.83449 131.862 11.2757 133.796 17.175L134.842 20.3742L132.385 21.2536C130.474 21.9382 129.437 24.1391 130.093 26.1404L136.91 46.9567C137.576 48.9865 139.686 50.0703 141.597 49.3858L166.968 40.3111C168.907 39.617 169.943 37.4066 169.278 35.3768L162.461 14.5605C161.805 12.5592 159.694 11.4849 157.755 12.1789ZM138.417 15.5207C137.357 12.2882 139.011 8.75626 142.106 7.64866C145.196 6.54105 148.576 8.27614 149.631 11.5086L150.677 14.7078L139.463 18.7199L138.417 15.5207ZM152.683 33.9887L154.423 39.3033C154.494 39.5267 154.366 39.7596 154.152 39.8357L151.718 40.7056C151.532 40.7722 151.295 40.6723 151.219 40.4489L149.479 35.1343C147.592 35.0535 145.842 33.8033 145.186 31.8068C144.345 29.235 145.662 26.4256 148.129 25.5414C150.596 24.6573 153.282 26.0358 154.123 28.6075C154.779 30.6088 154.123 32.7147 152.683 33.9887Z" fill="#4BABE7"/>
<path d="M155.198 13.0012C155.221 13.0678 150.658 14.7744 145.006 16.8184C139.354 18.8625 134.752 20.4645 134.728 20.4027C134.705 20.3361 139.268 18.6296 144.92 16.5855C150.572 14.5414 155.174 12.9394 155.193 13.0012H155.198Z" fill="#263238"/>
<path d="M160.588 13.8759C160.588 13.8759 160.612 13.9187 160.645 13.9995C160.683 14.0946 160.726 14.2182 160.783 14.3703C160.907 14.7173 161.073 15.1974 161.292 15.8107C161.729 17.0846 162.352 18.8958 163.117 21.1252C163.883 23.3785 164.786 26.05 165.794 29.0163C166.288 30.5042 166.835 32.0539 167.353 33.6892C167.595 34.5116 167.795 35.3862 167.709 36.2989C167.666 36.7505 167.543 37.2021 167.324 37.6157C167.101 38.0245 166.787 38.381 166.426 38.6758C165.694 39.2605 164.838 39.6027 164.011 39.907C163.179 40.2064 162.361 40.4964 161.558 40.7864C159.951 41.3616 158.402 41.9178 156.923 42.4454C153.971 43.496 151.314 44.442 149.075 45.2406C146.85 46.0249 145.044 46.6572 143.775 47.104C143.161 47.3132 142.676 47.4795 142.329 47.5984C142.173 47.6507 142.049 47.6887 141.954 47.722C141.868 47.7505 141.826 47.76 141.821 47.7553C141.821 47.7553 141.859 47.7315 141.944 47.6982C142.039 47.6602 142.163 47.6126 142.315 47.5508C142.657 47.4225 143.138 47.2419 143.746 47.0137C145.011 46.5478 146.807 45.8871 149.018 45.0742C151.252 44.2613 153.905 43.3011 156.852 42.2315C158.326 41.6991 159.875 41.1382 161.482 40.5582C162.285 40.2682 163.103 39.9735 163.93 39.674C164.748 39.3698 165.584 39.0323 166.274 38.4809C166.616 38.2051 166.906 37.8724 167.11 37.4969C167.315 37.1166 167.429 36.6982 167.467 36.2752C167.548 35.4195 167.357 34.5686 167.125 33.7605C166.611 32.1442 166.069 30.5803 165.58 29.0924C164.591 26.1213 163.702 23.4403 162.956 21.1823C162.224 18.9433 161.625 17.1227 161.206 15.8439C161.011 15.226 160.854 14.7363 160.74 14.3893C160.693 14.2324 160.655 14.1088 160.626 14.009C160.603 13.9235 160.593 13.8759 160.593 13.8759H160.588Z" fill="#263238"/>
<path d="M147.202 7.32066C147.202 7.32066 146.95 7.19231 146.484 7.00692C146.013 6.82628 145.305 6.61712 144.407 6.58859C143.513 6.55532 142.429 6.69317 141.345 7.16854C140.266 7.6344 139.202 8.46629 138.441 9.59766C137.666 10.7243 137.324 12.0268 137.324 13.2057C137.314 14.3941 137.566 15.4494 137.809 16.3146C138.061 17.1845 138.317 17.869 138.484 18.3491C138.655 18.8293 138.745 19.0907 138.731 19.1002C138.717 19.105 138.593 18.853 138.393 18.3824C138.198 17.9118 137.913 17.232 137.642 16.3621C137.376 15.4922 137.1 14.4226 137.096 13.2009C137.081 11.984 137.433 10.6197 138.237 9.45505C139.026 8.28565 140.133 7.42999 141.255 6.95463C142.382 6.47451 143.504 6.35566 144.416 6.41271C145.338 6.465 146.056 6.70744 146.522 6.9166C146.75 7.03068 146.926 7.121 147.04 7.19706C147.154 7.26837 147.211 7.31115 147.207 7.32066H147.202Z" fill="#263238"/>
<path d="M147.421 25.9217C147.421 25.9217 147.501 25.8741 147.663 25.8028C147.825 25.7268 148.067 25.6317 148.395 25.5366C148.718 25.4368 149.137 25.3608 149.631 25.3322C150.121 25.3085 150.701 25.3608 151.3 25.5794C152.512 26.0073 153.634 27.248 154.185 28.8927C154.451 29.7246 154.475 30.6896 154.209 31.6213C153.924 32.5483 153.405 33.442 152.654 34.1931L152.688 34.0647C153.32 35.795 154.004 37.6822 154.722 39.6455L154.765 39.7643L154.646 39.8024C154.304 39.9165 153.933 40.0401 153.558 40.1684C152.759 40.4346 151.965 40.7008 151.19 40.9623L151.071 41.0003L151.033 40.8815C150.382 38.9087 149.669 37.0548 149.151 35.2769L149.255 35.3577C148.281 35.2911 147.406 34.8823 146.712 34.3499C146.013 33.8128 145.476 33.1472 145.115 32.4437C144.759 31.7402 144.583 30.9938 144.611 30.3046C144.63 29.6153 144.787 28.9925 145.01 28.4696C145.453 27.4096 146.113 26.7441 146.603 26.378C147.102 26.012 147.425 25.9169 147.425 25.9169C147.435 25.9359 147.126 26.0595 146.646 26.4351C146.18 26.8106 145.548 27.4761 145.134 28.5172C144.72 29.5345 144.54 30.9938 145.281 32.3581C145.638 33.0332 146.161 33.6702 146.836 34.1835C147.511 34.6922 148.348 35.0725 149.265 35.1295H149.346L149.37 35.2103C149.892 36.9739 150.61 38.8231 151.266 40.8054L151.109 40.7293C151.884 40.4679 152.673 40.2064 153.472 39.9355C153.843 39.8119 154.214 39.6883 154.561 39.5694L154.485 39.7263C153.771 37.7631 153.092 35.8759 152.464 34.1408L152.44 34.0695L152.497 34.0124C153.211 33.3089 153.729 32.439 154 31.5548C154.261 30.6611 154.242 29.7436 154 28.945C153.481 27.3478 152.412 26.1356 151.252 25.7078C150.682 25.4843 150.121 25.4226 149.641 25.4368C149.16 25.4558 148.747 25.5129 148.424 25.6032C147.772 25.7696 147.44 25.9312 147.43 25.9122L147.421 25.9217Z" fill="#263238"/>
<path d="M132.727 163.174L85.2474 162.955C79.5383 162.932 74.9273 158.278 74.951 152.569L75.4549 33.5371C75.4787 27.8232 80.1325 23.2121 85.8464 23.2359L133.326 23.4545C139.035 23.4831 143.646 28.1321 143.622 33.8413L143.119 152.873C143.095 158.587 138.441 163.198 132.727 163.169V163.174Z" fill="#455A64"/>
<path d="M133.259 27.5665L124.052 27.5237C122.816 27.5189 121.813 28.56 121.808 29.8482L121.798 31.5168C121.794 32.805 120.786 33.8508 119.555 33.8413L101.61 33.7605C100.374 33.7557 99.3801 32.7052 99.3849 31.4122L99.3944 29.7436C99.3992 28.4554 98.4056 27.4001 97.1697 27.3953L93.9324 27.3811L85.875 27.343C81.8724 27.324 78.6161 30.5565 78.5971 34.5543L78.1075 150.739C78.0885 154.736 81.3162 157.993 85.3188 158.012L132.703 158.23C136.706 158.249 139.962 155.022 139.981 151.019L140.471 34.8348C140.49 30.837 137.262 27.5807 133.259 27.5617V27.5665Z" fill="white"/>
<path d="M126.88 142.738L91.6458 142.577C91.2798 142.577 90.985 142.177 90.9898 141.688L91.0278 132.47C91.0278 131.981 91.3273 131.586 91.6933 131.591L126.927 131.752C127.294 131.752 127.588 132.152 127.583 132.641L127.545 141.859C127.545 142.348 127.246 142.743 126.88 142.738Z" fill="#2699F9"/>
<path d="M105.347 138.577L105.366 134.512L105.858 134.514L105.841 138.143L107.731 138.151L107.729 138.588L105.347 138.577ZM109.666 138.66C109.39 138.659 109.149 138.592 108.942 138.46C108.736 138.328 108.576 138.144 108.46 137.908C108.346 137.672 108.29 137.397 108.291 137.082C108.293 136.764 108.352 136.487 108.468 136.251C108.585 136.015 108.748 135.832 108.955 135.702C109.163 135.571 109.405 135.507 109.68 135.508C109.955 135.51 110.196 135.576 110.401 135.708C110.609 135.84 110.769 136.025 110.883 136.262C110.999 136.499 111.056 136.777 111.054 137.094C111.053 137.409 110.993 137.684 110.876 137.919C110.76 138.154 110.597 138.337 110.389 138.467C110.182 138.597 109.941 138.661 109.666 138.66ZM109.668 138.239C109.877 138.24 110.049 138.188 110.184 138.081C110.32 137.974 110.42 137.834 110.486 137.66C110.552 137.485 110.585 137.296 110.586 137.092C110.587 136.889 110.555 136.699 110.491 136.522C110.427 136.346 110.328 136.203 110.193 136.094C110.059 135.985 109.887 135.93 109.678 135.929C109.469 135.928 109.297 135.982 109.161 136.09C109.026 136.197 108.925 136.339 108.86 136.515C108.794 136.691 108.761 136.88 108.76 137.084C108.759 137.288 108.79 137.477 108.854 137.652C108.918 137.827 109.018 137.968 109.152 138.076C109.287 138.184 109.458 138.238 109.668 138.239ZM112.987 139.818C112.761 139.817 112.567 139.787 112.404 139.728C112.242 139.671 112.106 139.595 111.998 139.5C111.892 139.407 111.807 139.308 111.744 139.201L112.118 138.941C112.16 138.997 112.213 139.061 112.278 139.132C112.342 139.206 112.431 139.269 112.543 139.322C112.657 139.377 112.805 139.405 112.989 139.406C113.235 139.407 113.439 139.348 113.599 139.23C113.76 139.111 113.841 138.925 113.842 138.671L113.845 138.052L113.805 138.052C113.771 138.107 113.721 138.176 113.657 138.257C113.595 138.338 113.505 138.41 113.386 138.473C113.27 138.534 113.112 138.565 112.914 138.564C112.668 138.563 112.447 138.503 112.252 138.386C112.058 138.269 111.904 138.099 111.791 137.876C111.68 137.653 111.625 137.383 111.626 137.065C111.628 136.753 111.684 136.481 111.795 136.25C111.906 136.018 112.059 135.839 112.256 135.713C112.452 135.585 112.679 135.522 112.935 135.523C113.134 135.524 113.291 135.558 113.407 135.624C113.525 135.69 113.614 135.764 113.676 135.848C113.739 135.93 113.788 135.998 113.822 136.051L113.87 136.051L113.872 135.567L114.325 135.569L114.31 138.705C114.309 138.967 114.249 139.18 114.129 139.343C114.01 139.508 113.851 139.629 113.651 139.704C113.452 139.782 113.231 139.82 112.987 139.818ZM112.979 138.143C113.167 138.144 113.326 138.102 113.456 138.016C113.586 137.931 113.685 137.808 113.753 137.647C113.822 137.485 113.856 137.292 113.857 137.068C113.858 136.848 113.826 136.654 113.761 136.486C113.695 136.317 113.598 136.185 113.469 136.089C113.34 135.993 113.18 135.945 112.989 135.944C112.791 135.943 112.625 135.993 112.492 136.093C112.361 136.193 112.262 136.327 112.195 136.496C112.129 136.665 112.096 136.853 112.095 137.06C112.094 137.271 112.126 137.459 112.192 137.622C112.258 137.783 112.357 137.911 112.488 138.004C112.619 138.096 112.783 138.142 112.979 138.143ZM115.168 138.622L115.182 135.573L115.65 135.575L115.637 138.624L115.168 138.622ZM115.422 135.066C115.331 135.066 115.253 135.034 115.187 134.972C115.122 134.909 115.09 134.834 115.09 134.747C115.091 134.66 115.124 134.585 115.189 134.523C115.255 134.461 115.334 134.43 115.425 134.431C115.517 134.431 115.595 134.463 115.659 134.525C115.725 134.588 115.758 134.663 115.757 134.75C115.757 134.837 115.724 134.912 115.657 134.974C115.592 135.036 115.514 135.066 115.422 135.066ZM116.971 136.796L116.963 138.63L116.494 138.628L116.508 135.579L116.961 135.581L116.959 136.057L116.998 136.058C117.071 135.903 117.18 135.779 117.326 135.686C117.472 135.591 117.66 135.545 117.89 135.546C118.096 135.547 118.277 135.59 118.431 135.675C118.586 135.759 118.705 135.887 118.791 136.058C118.876 136.228 118.918 136.442 118.917 136.701L118.908 138.639L118.44 138.636L118.448 136.731C118.449 136.492 118.388 136.305 118.264 136.171C118.14 136.035 117.97 135.967 117.753 135.966C117.603 135.965 117.47 135.997 117.352 136.061C117.235 136.125 117.143 136.22 117.074 136.344C117.006 136.468 116.972 136.619 116.971 136.796Z" fill="#2699F9"/>
<path d="M98.6714 61.7028L86.4451 61.6473L86.4349 63.891L98.6612 63.9465L98.6714 61.7028Z" fill="#2699F9"/>
<path opacity="0.1" d="M98.6714 61.7028L86.4451 61.6473L86.4349 63.891L98.6612 63.9465L98.6714 61.7028Z" fill="#2699F9"/>
<path d="M134.514 75.4739C134.514 75.4739 134.614 75.4786 134.795 75.4073C134.961 75.3408 135.227 75.1411 135.256 74.7656C135.256 74.0098 135.256 72.9069 135.251 71.4903C135.251 70.7773 135.251 69.9882 135.251 69.123C135.251 68.9043 135.251 68.6857 135.251 68.4575C135.256 68.2245 135.256 68.0106 135.118 67.8347C134.994 67.6589 134.78 67.5448 134.557 67.5448C134.315 67.5448 134.063 67.5448 133.811 67.5448C131.79 67.5448 129.485 67.5353 126.946 67.5305C116.764 67.4925 102.708 67.4402 87.1868 67.3832C86.9824 67.3832 86.7828 67.483 86.6639 67.6494C86.5308 67.8157 86.5356 68.0154 86.5403 68.2721C86.5403 68.7522 86.5403 69.2371 86.5356 69.7124C86.5356 70.6727 86.5261 71.6234 86.5213 72.5694C86.5213 73.04 86.5213 73.5154 86.5166 73.9812C86.5261 74.2047 86.4928 74.4756 86.5356 74.6515C86.5831 74.8416 86.7257 75.0033 86.9064 75.0793C87.0014 75.1174 87.087 75.1316 87.2011 75.1316H87.5481L88.2421 75.1364C88.7032 75.1364 89.1643 75.1364 89.6207 75.1411C93.281 75.1601 96.813 75.1792 100.179 75.1982C106.905 75.241 112.961 75.2742 118.052 75.3075C123.134 75.3455 127.251 75.3788 130.103 75.4026C131.519 75.4168 132.622 75.4311 133.378 75.4406C133.744 75.4454 134.029 75.4549 134.229 75.4549C134.419 75.4596 134.519 75.4691 134.519 75.4691C134.519 75.4691 134.419 75.4786 134.229 75.4786C134.029 75.4786 133.744 75.4834 133.378 75.4881C132.618 75.4881 131.519 75.4881 130.103 75.4977C127.251 75.4977 123.134 75.4881 118.052 75.4834C112.961 75.4691 106.905 75.4501 100.179 75.4263C96.813 75.4121 93.281 75.3978 89.6207 75.3836C89.1643 75.3836 88.7032 75.3836 88.2421 75.3788H87.5481H87.2011C87.0822 75.3788 86.9349 75.3645 86.8113 75.3075C86.5641 75.2029 86.3644 74.9795 86.2979 74.718C86.2599 74.5849 86.2694 74.4471 86.2694 74.3378V73.986C86.2694 73.5154 86.2741 73.0448 86.2789 72.5741C86.2789 71.6282 86.2884 70.6774 86.2884 69.7172C86.2884 69.2371 86.2884 68.757 86.2931 68.2768C86.2931 68.1532 86.2884 68.0439 86.3074 67.8965C86.3264 67.7587 86.3835 67.6256 86.4643 67.5115C86.6259 67.2833 86.9064 67.1407 87.1868 67.1455C102.708 67.231 116.764 67.3071 126.946 67.3641C129.49 67.3832 131.79 67.3974 133.815 67.4164C134.067 67.4164 134.315 67.4164 134.562 67.4212C134.828 67.4212 135.08 67.559 135.227 67.7682C135.389 67.9726 135.389 68.2531 135.379 68.467C135.379 68.6904 135.379 68.9138 135.375 69.1277C135.365 69.9929 135.36 70.782 135.356 71.4951C135.337 72.9117 135.322 74.0145 135.318 74.7751C135.275 75.1697 134.99 75.3741 134.818 75.4359C134.633 75.5024 134.529 75.4786 134.529 75.4786L134.514 75.4739Z" fill="#E0E0E0"/>
<path d="M112.089 70.3772L89.7283 70.2757L89.7188 72.372L112.08 72.4735L112.089 70.3772Z" fill="#4BABE7"/>
<path opacity="0.2" d="M112.089 70.3772L89.7283 70.2757L89.7188 72.372L112.08 72.4735L112.089 70.3772Z" fill="#4BABE7"/>
<path d="M98.5879 82.1714L86.3616 82.1159L86.3514 84.3596L98.5777 84.4151L98.5879 82.1714Z" fill="#2699F9"/>
<path opacity="0.1" d="M98.5879 82.1714L86.3616 82.1159L86.3514 84.3596L98.5777 84.4151L98.5879 82.1714Z" fill="#2699F9"/>
<path d="M134.201 95.9431C134.201 95.9431 134.3 95.9431 134.481 95.8908C134.652 95.8338 134.933 95.6912 135.085 95.3537C135.166 95.1873 135.175 94.9829 135.166 94.75C135.166 94.517 135.166 94.2651 135.166 93.9941C135.166 93.4475 135.166 92.8152 135.166 92.1117C135.166 91.4034 135.166 90.6143 135.166 89.7539V89.0931C135.175 88.8649 135.147 88.6558 135.028 88.4656C134.914 88.2802 134.728 88.1329 134.51 88.0663C134.296 87.9998 134.044 88.0378 133.792 88.0235C131.776 88.0235 129.485 88.014 126.946 88.0093C116.797 87.9712 102.793 87.919 87.3247 87.8619C86.8969 87.8524 86.4976 88.2042 86.4548 88.6273C86.4406 89.0789 86.4453 89.578 86.4406 90.0486C86.4406 91.0041 86.4311 91.9548 86.4263 92.896C86.4263 93.3667 86.4263 93.8373 86.4216 94.3031C86.4311 94.5361 86.3978 94.7785 86.4501 94.9686C86.5024 95.1635 86.6307 95.3394 86.7971 95.4583C86.973 95.5771 87.1584 95.6199 87.3865 95.6104H88.0758C88.5369 95.6151 88.9933 95.6199 89.4496 95.6199C93.0957 95.6389 96.6182 95.6579 99.9695 95.6769C106.672 95.7197 112.709 95.753 117.781 95.7863C122.844 95.8243 126.947 95.8576 129.789 95.8813C131.201 95.9004 132.299 95.9099 133.055 95.9194C133.421 95.9289 133.701 95.9336 133.906 95.9336C134.096 95.9384 134.196 95.9479 134.196 95.9479C134.196 95.9479 134.096 95.9574 133.906 95.9574C133.706 95.9574 133.426 95.9622 133.055 95.9669C132.299 95.9669 131.201 95.9669 129.789 95.9764C126.947 95.9764 122.844 95.9669 117.781 95.9621C112.709 95.9479 106.672 95.9289 99.9695 95.9051C96.6182 95.8908 93.0957 95.8766 89.4496 95.8623C88.9933 95.8623 88.5369 95.8623 88.0758 95.8576H87.3865C87.1536 95.8671 86.8684 95.81 86.6592 95.6627C86.4453 95.5153 86.2837 95.2919 86.2124 95.0399C86.1411 94.7737 86.1839 94.5408 86.1744 94.3126C86.1744 93.8468 86.1744 93.3762 86.1791 92.9055C86.1791 91.9643 86.1886 91.0136 86.1886 90.0581C86.1934 89.5732 86.1886 89.1169 86.2029 88.6082C86.2552 88.0616 86.7638 87.61 87.32 87.6242C102.788 87.7098 116.793 87.7859 126.942 87.8429C129.475 87.8619 131.767 87.8762 133.782 87.8952C134.029 87.9094 134.281 87.8667 134.538 87.9475C134.785 88.0235 134.994 88.1947 135.123 88.4086C135.261 88.6177 135.289 88.884 135.275 89.1026C135.275 89.326 135.275 89.5495 135.27 89.7634C135.261 90.6238 135.256 91.4129 135.251 92.1212C135.242 92.8295 135.237 93.457 135.232 94.0036C135.232 94.2746 135.227 94.5265 135.223 94.7595C135.223 94.9876 135.213 95.2111 135.123 95.3822C134.956 95.734 134.662 95.8766 134.481 95.9241C134.291 95.9717 134.191 95.9526 134.191 95.9526L134.201 95.9431Z" fill="#E0E0E0"/>
<path d="M98.4956 103.524L86.2693 103.469L86.2591 105.712L98.4854 105.768L98.4956 103.524Z" fill="#2699F9"/>
<path opacity="0.1" d="M98.4956 103.524L86.2693 103.469L86.2591 105.712L98.4854 105.768L98.4956 103.524Z" fill="#2699F9"/>
<path d="M134.11 117.297C134.11 117.297 134.21 117.297 134.391 117.244C134.562 117.187 134.842 117.045 134.995 116.707C135.075 116.541 135.085 116.336 135.075 116.103C135.075 115.87 135.075 115.619 135.075 115.348C135.075 114.801 135.075 114.169 135.075 113.465C135.075 112.757 135.075 111.968 135.075 111.107C135.075 110.893 135.075 110.67 135.075 110.447C135.085 110.218 135.056 110.009 134.938 109.819C134.823 109.634 134.638 109.486 134.419 109.42C134.205 109.353 133.954 109.391 133.702 109.377C131.686 109.377 129.395 109.367 126.861 109.363C116.712 109.325 102.708 109.272 87.2393 109.215C86.8115 109.206 86.4122 109.553 86.3694 109.981C86.3551 110.432 86.3599 110.931 86.3551 111.402C86.3551 112.358 86.3456 113.308 86.3409 114.249C86.3409 114.72 86.3409 115.191 86.3361 115.657C86.3456 115.889 86.3123 116.132 86.3646 116.322C86.4169 116.517 86.5453 116.693 86.7116 116.812C86.8875 116.931 87.0729 116.973 87.3011 116.964H87.9904C88.4515 116.969 88.9078 116.973 89.3642 116.973C93.0102 116.992 96.5327 117.011 99.884 117.03C106.587 117.073 112.624 117.106 117.696 117.14C122.759 117.178 126.861 117.211 129.704 117.235C131.116 117.254 132.214 117.263 132.97 117.273C133.336 117.278 133.621 117.287 133.82 117.287C134.011 117.292 134.11 117.301 134.11 117.301C134.11 117.301 134.011 117.311 133.82 117.311C133.621 117.311 133.34 117.311 132.97 117.32C132.214 117.32 131.116 117.32 129.704 117.33C126.861 117.33 122.759 117.32 117.696 117.316C112.624 117.301 106.587 117.282 99.884 117.259C96.5327 117.244 93.0102 117.23 89.3642 117.216C88.9078 117.216 88.4515 117.216 87.9904 117.211H87.3011C87.0682 117.221 86.7829 117.163 86.5738 117.016C86.3599 116.869 86.1982 116.645 86.1269 116.393C86.0556 116.127 86.0984 115.894 86.0889 115.661C86.0889 115.195 86.0889 114.725 86.0937 114.254C86.0937 113.313 86.1032 112.362 86.1032 111.407C86.1079 110.922 86.1032 110.466 86.1174 109.957C86.1697 109.41 86.6784 108.959 87.2345 108.973C102.703 109.058 116.707 109.135 126.856 109.192C129.39 109.211 131.681 109.225 133.697 109.244C133.944 109.258 134.196 109.215 134.453 109.296C134.7 109.372 134.909 109.543 135.037 109.757C135.175 109.966 135.204 110.233 135.189 110.451C135.189 110.675 135.189 110.898 135.185 111.112C135.175 111.972 135.17 112.762 135.166 113.47C135.156 114.178 135.151 114.806 135.147 115.352C135.147 115.623 135.142 115.875 135.137 116.108C135.137 116.336 135.128 116.56 135.037 116.731C134.871 117.083 134.576 117.225 134.396 117.273C134.205 117.32 134.106 117.301 134.106 117.301L134.11 117.297Z" fill="#E0E0E0"/>
<path d="M112.001 90.8459L89.6401 90.7444L89.6306 92.8407L111.992 92.9422L112.001 90.8459Z" fill="#4BABE7"/>
<path opacity="0.2" d="M112.001 90.8459L89.6401 90.7444L89.6306 92.8407L111.992 92.9422L112.001 90.8459Z" fill="#4BABE7"/>
<path d="M91.665 113.413C91.665 113.988 91.223 114.454 90.681 114.449C90.1391 114.449 89.7065 113.979 89.7065 113.403C89.7065 112.828 90.1486 112.362 90.6905 112.367C91.2325 112.367 91.665 112.838 91.665 113.413Z" fill="#4BABE7"/>
<path d="M94.6929 113.427C94.6929 114.002 94.2508 114.468 93.7089 114.463C93.167 114.459 92.7344 113.993 92.7344 113.418C92.7344 112.842 93.1765 112.377 93.7184 112.381C94.2603 112.381 94.6929 112.852 94.6929 113.427Z" fill="#4BABE7"/>
<path d="M97.7258 113.441C97.7258 114.017 97.2837 114.482 96.7418 114.478C96.1999 114.478 95.7673 114.007 95.7673 113.432C95.7673 112.857 96.2094 112.391 96.7513 112.396C97.2933 112.396 97.7258 112.866 97.7258 113.441Z" fill="#4BABE7"/>
<path d="M100.754 113.456C100.754 114.031 100.312 114.497 99.7699 114.492C99.228 114.492 98.7954 114.021 98.7954 113.446C98.7954 112.871 99.2375 112.405 99.7794 112.41C100.321 112.41 100.754 112.88 100.754 113.456Z" fill="#4BABE7"/>
<path d="M103.782 113.47C103.782 114.045 103.34 114.511 102.798 114.506C102.256 114.506 101.823 114.036 101.823 113.46C101.823 112.885 102.266 112.419 102.807 112.424C103.349 112.424 103.782 112.895 103.782 113.47Z" fill="#4BABE7"/>
<path d="M106.81 113.484C106.81 114.059 106.368 114.525 105.826 114.52C105.284 114.52 104.852 114.05 104.852 113.475C104.852 112.899 105.294 112.434 105.836 112.438C106.377 112.438 106.81 112.909 106.81 113.484Z" fill="#4BABE7"/>
<path d="M109.843 113.498C109.843 114.074 109.401 114.539 108.859 114.535C108.317 114.535 107.885 114.064 107.885 113.489C107.885 112.914 108.327 112.448 108.869 112.453C109.41 112.453 109.843 112.923 109.843 113.498Z" fill="#4BABE7"/>
<path d="M112.871 113.513C112.871 114.088 112.429 114.554 111.887 114.549C111.345 114.549 110.913 114.078 110.913 113.503C110.913 112.928 111.355 112.462 111.897 112.467C112.439 112.467 112.871 112.937 112.871 113.513Z" fill="#4BABE7"/>
<path d="M115.899 113.527C115.899 114.102 115.457 114.568 114.915 114.563C114.373 114.563 113.941 114.093 113.941 113.517C113.941 112.942 114.383 112.476 114.925 112.481C115.467 112.481 115.899 112.952 115.899 113.527Z" fill="#4BABE7"/>
<g opacity="0.2">
<path d="M91.665 113.413C91.665 113.988 91.223 114.454 90.681 114.449C90.1391 114.449 89.7065 113.979 89.7065 113.403C89.7065 112.828 90.1486 112.362 90.6905 112.367C91.2325 112.367 91.665 112.838 91.665 113.413Z" fill="#4BABE7"/>
<path d="M94.6929 113.427C94.6929 114.002 94.2508 114.468 93.7089 114.463C93.167 114.459 92.7344 113.993 92.7344 113.418C92.7344 112.842 93.1765 112.377 93.7184 112.381C94.2603 112.381 94.6929 112.852 94.6929 113.427Z" fill="#4BABE7"/>
<path d="M97.7258 113.441C97.7258 114.017 97.2837 114.482 96.7418 114.478C96.1999 114.478 95.7673 114.007 95.7673 113.432C95.7673 112.857 96.2094 112.391 96.7513 112.396C97.2933 112.396 97.7258 112.866 97.7258 113.441Z" fill="#4BABE7"/>
<path d="M100.754 113.456C100.754 114.031 100.312 114.497 99.7699 114.492C99.228 114.492 98.7954 114.021 98.7954 113.446C98.7954 112.871 99.2375 112.405 99.7794 112.41C100.321 112.41 100.754 112.88 100.754 113.456Z" fill="#4BABE7"/>
<path d="M103.782 113.47C103.782 114.045 103.34 114.511 102.798 114.506C102.256 114.506 101.823 114.036 101.823 113.46C101.823 112.885 102.266 112.419 102.807 112.424C103.349 112.424 103.782 112.895 103.782 113.47Z" fill="#4BABE7"/>
<path d="M106.81 113.484C106.81 114.059 106.368 114.525 105.826 114.52C105.284 114.52 104.852 114.05 104.852 113.475C104.852 112.899 105.294 112.434 105.836 112.438C106.377 112.438 106.81 112.909 106.81 113.484Z" fill="#4BABE7"/>
<path d="M109.843 113.498C109.843 114.074 109.401 114.539 108.859 114.535C108.317 114.535 107.885 114.064 107.885 113.489C107.885 112.914 108.327 112.448 108.869 112.453C109.41 112.453 109.843 112.923 109.843 113.498Z" fill="#4BABE7"/>
<path d="M112.871 113.513C112.871 114.088 112.429 114.554 111.887 114.549C111.345 114.549 110.913 114.078 110.913 113.503C110.913 112.928 111.355 112.462 111.897 112.467C112.439 112.467 112.871 112.937 112.871 113.513Z" fill="#4BABE7"/>
<path d="M115.899 113.527C115.899 114.102 115.457 114.568 114.915 114.563C114.373 114.563 113.941 114.093 113.941 113.517C113.941 112.942 114.383 112.476 114.925 112.481C115.467 112.481 115.899 112.952 115.899 113.527Z" fill="#4BABE7"/>
</g>
<path d="M111.597 44.8983C112.239 44.6321 112.69 43.9714 112.695 43.1918C112.695 42.1745 111.93 41.3426 110.974 41.3378C110.019 41.3378 109.244 42.1555 109.239 43.1727C109.239 43.9571 109.695 44.6226 110.342 44.8936C107.68 45.2929 107.803 48.1879 107.803 48.1879L114.092 48.2164C114.092 48.2164 114.235 45.2929 111.597 44.8936V44.8983Z" fill="#2699F9"/>
<path opacity="0.1" d="M111.597 44.8983C112.239 44.6321 112.69 43.9714 112.695 43.1918C112.695 42.1745 111.93 41.3426 110.974 41.3378C110.019 41.3378 109.244 42.1555 109.239 43.1727C109.239 43.9571 109.695 44.6226 110.342 44.8936C107.68 45.2929 107.803 48.1879 107.803 48.1879L114.092 48.2164C114.092 48.2164 114.235 45.2929 111.597 44.8936V44.8983Z" fill="#2699F9"/>
<path d="M121.822 50.1044L99.3896 50.0026L99.3775 52.6836L121.81 52.7854L121.822 50.1044Z" fill="#4BABE7"/>
<path opacity="0.2" d="M121.822 50.1044L99.3896 50.0026L99.3775 52.6836L121.81 52.7854L121.822 50.1044Z" fill="#4BABE7"/>
<path d="M39.3507 63.9938C39.3507 63.9938 39.2746 64.008 39.132 64.0175C38.9751 64.0271 38.7612 64.0461 38.4855 64.0651C38.2003 64.0698 37.8533 64.1316 37.4445 64.2029C37.2401 64.2457 37.0166 64.26 36.7837 64.3265C36.5508 64.3931 36.3083 64.4596 36.0469 64.5309C35.0201 64.8542 33.7841 65.3676 32.5434 66.2708C31.3027 67.1645 30.062 68.4432 29.0923 70.1117C28.5836 70.9294 28.2129 71.8801 27.8849 72.8736C27.6139 73.8861 27.3762 74.9605 27.3572 76.0966C27.3049 76.6623 27.3619 77.2375 27.3857 77.8174C27.4 78.1074 27.4618 78.3974 27.4998 78.6921C27.5378 78.9868 27.5806 79.2815 27.6662 79.5715C27.9086 80.7552 28.3887 81.9103 28.9972 83.0227C30.2141 85.2521 32.2582 87.1726 34.7872 88.285C36.0516 88.8412 37.4492 89.1454 38.8706 89.2024C40.2919 89.2928 41.7513 89.0646 43.1346 88.5892L43.5529 88.4371L43.61 88.4181L43.6575 88.4419C45.7016 89.4782 47.7076 90.5002 49.6519 91.4842L49.476 91.6363C48.8342 89.6493 48.2163 87.724 47.6221 85.8749L47.5983 85.8036L47.6506 85.7513C49.1622 84.2396 50.2128 82.4 50.7975 80.5175C51.3822 78.6303 51.482 76.7098 51.2538 74.9462C51.0257 73.1826 50.4505 71.5759 49.6804 70.2258C48.9103 68.871 47.9548 67.7682 46.9756 66.9125C45.982 66.0569 44.9505 65.4817 44.0283 65.0396C43.0823 64.645 42.2409 64.3931 41.5421 64.2552C41.1903 64.1934 40.8814 64.1411 40.6104 64.0984C40.3394 64.0793 40.1113 64.0651 39.9211 64.0508C39.7452 64.0366 39.6026 64.0271 39.498 64.0175C39.403 64.008 39.3554 64.0033 39.3554 63.9985C39.3554 63.9938 39.403 63.9985 39.498 63.9985C39.6026 63.9985 39.7452 64.0033 39.9211 64.0128C40.1113 64.0223 40.3442 64.0318 40.6152 64.0413C40.8909 64.0841 41.2046 64.1269 41.5564 64.1792C42.2647 64.3028 43.1156 64.5452 44.0758 64.935C45.0123 65.3723 46.0581 65.9475 47.0706 66.8032C48.0736 67.6636 49.0481 68.7712 49.8373 70.145C50.6264 71.5093 51.2206 73.1398 51.4583 74.932C51.6959 76.7193 51.6056 78.6731 51.0162 80.5983C50.4267 82.514 49.3619 84.3917 47.8217 85.9367L47.8502 85.8131C48.4492 87.6623 49.0719 89.5875 49.7137 91.5698L49.8087 91.8597L49.5378 91.7219C47.5935 90.7379 45.5875 89.7206 43.5387 88.6795H43.6432L43.2154 88.8412C41.8036 89.326 40.3109 89.559 38.8563 89.4686C37.4017 89.4068 35.9756 89.0979 34.6826 88.5274C32.1013 87.3865 30.0192 85.4233 28.7833 83.151C28.1653 82.0197 27.6804 80.836 27.438 79.6333C27.3524 79.3386 27.3097 79.0391 27.2716 78.7396C27.2336 78.4402 27.1718 78.1454 27.1575 77.8507C27.1338 77.2565 27.0815 76.6718 27.1338 76.1013C27.1575 74.951 27.4047 73.8576 27.6852 72.8308C28.0275 71.8231 28.4078 70.8628 28.9259 70.0357C29.9194 68.3481 31.1839 67.0646 32.4484 66.171C33.7128 65.2725 34.9678 64.7639 36.0089 64.4549C36.2703 64.3883 36.5223 64.3218 36.7552 64.26C36.9881 64.1934 37.2163 64.1839 37.4207 64.1459C37.8343 64.0793 38.186 64.0271 38.4713 64.0318C38.747 64.0223 38.9656 64.0175 39.1225 64.008C39.2699 64.008 39.3459 64.008 39.3459 64.008L39.3507 63.9938Z" fill="#4BABE7"/>
<path d="M42.0649 75.0936H41.1855L39.2698 72.422V70.6679C39.2698 70.6679 37.9102 70.5824 38.0719 72.8784C38.2335 75.1744 38.0576 74.5897 38.0576 74.5897C38.0576 74.5897 35.1721 74.5992 34.9345 74.8511C34.7586 75.0318 34.6825 77.8982 34.6492 79.4527C34.635 80.2323 35.1151 80.9596 35.8424 81.145C35.947 81.1735 36.0516 81.1878 36.1514 81.1878C36.8692 81.1878 40.5438 80.6031 40.5438 80.6031H42.0602V75.0936H42.0649Z" fill="#4BABE7"/>
<path d="M44.5797 74.6135L44.0378 80.6221H42.5356V74.7323L44.5797 74.6135Z" fill="#4BABE7"/>
<path d="M62.4964 196.939V192.87L55.209 192.823L55.1472 198.964L55.5988 198.998C57.6096 199.126 65.8287 199.316 67.174 198.898C68.6761 198.432 62.4916 196.935 62.4916 196.935L62.4964 196.939Z" fill="#E8505B"/>
<path d="M67.3498 198.522C67.3498 198.589 64.6259 198.646 61.2603 198.646C57.8947 198.646 55.1709 198.589 55.1709 198.522C55.1709 198.456 57.8947 198.399 61.2603 198.399C64.6259 198.399 67.3498 198.456 67.3498 198.522Z" fill="#263238"/>
<path d="M62.6247 197.767C62.5629 197.733 62.6152 197.519 62.772 197.31C62.9289 197.096 63.119 196.987 63.1666 197.034C63.2141 197.082 63.1143 197.263 62.9717 197.458C62.8291 197.652 62.6865 197.8 62.6247 197.771V197.767Z" fill="#263238"/>
<path d="M63.0907 198.038C63.0289 198.014 63.0622 197.771 63.2048 197.519C63.3474 197.263 63.5375 197.111 63.5898 197.153C63.6421 197.196 63.5518 197.405 63.4187 197.638C63.2856 197.876 63.1572 198.061 63.0907 198.033V198.038Z" fill="#263238"/>
<path d="M57.3673 198.503C57.3387 198.522 57.2294 198.418 57.0725 198.237C56.9157 198.061 56.7065 197.809 56.4355 197.595C56.1646 197.386 55.8651 197.277 55.6464 197.253C55.423 197.225 55.2804 197.253 55.2661 197.22C55.2519 197.191 55.3897 197.092 55.6512 197.077C55.9079 197.058 56.2739 197.158 56.5829 197.401C56.8919 197.638 57.0868 197.928 57.2104 198.133C57.334 198.342 57.391 198.484 57.3625 198.503H57.3673Z" fill="#263238"/>
<path d="M62.6486 197.001C62.6866 197.058 62.5582 197.201 62.3491 197.277C62.1399 197.353 61.9545 197.329 61.945 197.258C61.9355 197.191 62.0829 197.111 62.2635 197.044C62.4441 196.977 62.6105 196.944 62.6486 197.001Z" fill="#263238"/>
<path d="M62.5297 196.611C62.5344 196.678 62.3443 196.74 62.0971 196.74C61.8499 196.74 61.655 196.692 61.6598 196.621C61.6598 196.554 61.8594 196.493 62.0923 196.493C62.3253 196.493 62.5249 196.54 62.5297 196.611Z" fill="#263238"/>
<path d="M80.4414 196.939V192.87L73.1541 192.823L73.0923 198.903L73.5439 198.936C75.5547 199.064 83.7738 199.316 85.119 198.903C86.6212 198.437 80.4367 196.939 80.4367 196.939H80.4414Z" fill="#E8505B"/>
<path d="M85.2948 198.532C85.2948 198.598 82.571 198.655 79.2054 198.655C75.8398 198.655 73.116 198.598 73.116 198.532C73.116 198.465 75.8398 198.408 79.2054 198.408C82.571 198.408 85.2948 198.465 85.2948 198.532Z" fill="#263238"/>
<path d="M80.5697 197.767C80.5079 197.733 80.5602 197.519 80.7171 197.31C80.874 197.096 81.0641 196.987 81.1116 197.034C81.1592 197.082 81.0594 197.263 80.9167 197.458C80.7741 197.652 80.6315 197.8 80.5697 197.771V197.767Z" fill="#263238"/>
<path d="M81.0358 198.038C80.974 198.014 81.0072 197.771 81.1498 197.519C81.2925 197.263 81.4826 197.111 81.5349 197.153C81.5872 197.196 81.4969 197.405 81.3638 197.638C81.2307 197.876 81.0976 198.061 81.0358 198.033V198.038Z" fill="#263238"/>
<path d="M75.3123 198.503C75.2838 198.522 75.1745 198.418 75.0176 198.237C74.8607 198.061 74.6516 197.809 74.3806 197.595C74.1097 197.386 73.8102 197.277 73.5915 197.253C73.3681 197.225 73.2255 197.253 73.2112 197.22C73.1969 197.191 73.3348 197.092 73.5963 197.077C73.853 197.058 74.219 197.158 74.528 197.401C74.837 197.638 75.0319 197.928 75.1555 198.133C75.2791 198.342 75.3361 198.484 75.3076 198.503H75.3123Z" fill="#263238"/>
<path d="M80.5936 197.001C80.6269 197.058 80.5033 197.201 80.2941 197.277C80.085 197.353 79.8996 197.329 79.8901 197.258C79.8806 197.191 80.0279 197.111 80.2086 197.044C80.3892 196.977 80.5556 196.944 80.5936 197.001Z" fill="#263238"/>
<path d="M80.4794 196.611C80.4841 196.678 80.294 196.74 80.0468 196.74C79.7996 196.74 79.6047 196.692 79.6095 196.621C79.6142 196.554 79.8091 196.493 80.042 196.493C80.275 196.493 80.4746 196.54 80.4794 196.611Z" fill="#263238"/>
<path d="M107.29 76.2439C107.1 76.049 106.634 76.1393 106.634 76.1393C106.634 76.1393 106.715 75.5832 106.634 75.317C106.549 75.046 105.95 75.0983 105.95 75.0983C105.95 75.0983 105.912 74.8416 105.964 74.4233C105.978 74.3187 105.921 74.2426 105.826 74.1856C105.541 74.0145 104.932 74.024 104.932 74.024C104.566 73.7625 106.049 71.6852 106.601 71.0197C107.143 70.3637 107.052 69.836 106.563 69.836C106.23 69.836 104.495 71.8325 103.967 72.5028C103.44 73.1731 102.018 75.0365 101.971 73.5486C101.923 72.0607 101.324 70.9341 100.954 70.7439C100.578 70.5538 100.179 71.0006 100.383 71.4142C100.549 71.747 100.654 72.3935 100.716 72.8783C100.763 73.2776 100.749 73.6865 100.659 74.081C100.412 75.1934 100.145 75.9207 100.017 76.2297L99.979 76.2107C99.979 76.2107 89.6018 86.1601 88.8555 86.8684C88.1804 87.5054 74.6991 86.1125 71.999 85.8273C71.2622 85.7465 70.1688 85.5944 69.2181 85.6372C68.0487 85.6895 67.8395 85.8558 66.6654 85.8701C63.0764 85.9176 60.0816 86.2694 57.8568 86.6449C55.1663 87.1013 52.9558 89.017 52.1239 91.6173C49.4001 100.126 43.2298 120.268 42.1317 131.581C41.2666 133.207 40.2968 135.109 39.907 136.178C39.1417 138.26 39.3271 138.327 39.5838 138.374C40.2731 138.503 41.0669 134.766 41.3616 135.669C41.6564 136.573 39.8642 140.124 40.5915 140.228C41.5423 140.366 42.2981 136.44 42.3837 136.112C42.4692 135.793 42.9494 135.902 42.8543 136.192C42.7164 136.611 41.3807 141.046 42.3076 141.188C42.821 141.269 42.8781 140.328 42.8781 140.328C42.8781 140.328 43.824 136.088 44.2614 136.169C44.7035 136.249 44.2328 138.759 44.0142 139.596C43.8003 140.423 44.1045 140.86 44.5466 140.651C44.8508 140.509 45.5781 137.97 45.7778 137.138C45.9727 136.306 46.4766 134.02 47.1468 135.346C47.8171 136.672 48.8344 137.443 49.2527 137.462C49.671 137.476 49.8469 136.901 49.4856 136.611C49.1909 136.378 48.8249 135.841 48.5682 135.422C48.3543 135.08 48.1974 134.704 48.1118 134.31C47.7791 132.789 47.7791 131.905 47.7791 131.905L47.703 131.415C48.7678 126.143 51.834 110.67 56.2453 100.787L58.0612 104.523L58.8504 107.29L54.0111 119.241L74.6468 118.97L71.5712 107.114L75.3075 94.7547C79.3529 94.845 89.7444 94.9971 91.489 94.2128C93.6662 93.2383 104.932 79.0391 104.932 79.0391C105.693 78.4354 106.468 77.7794 107.038 77.2137C107.038 77.2137 107.708 76.6718 107.295 76.2439H107.29Z" fill="#FFBE9D"/>
<path d="M53.1032 110.442C53.7022 108.398 56.7778 98.2915 56.7778 98.2915C56.7778 98.2915 58.2894 106.53 57.8901 107.523C57.4338 108.669 56.5924 109.976 56.5924 109.976C53.1032 115.291 53.5596 117.948 53.5596 117.948L74.6373 117.306C74.6896 114.359 72.945 107.504 72.5789 106.411C72.2129 105.317 73.4251 101.733 73.4251 101.733C73.4251 101.733 75.8067 99.3135 75.7164 98.068C75.531 95.5581 75.3028 94.75 75.3028 94.75L88.1282 95.2206L87.7241 86.5166L69.2894 84.6722C68.6524 86.4881 62.8435 85.5992 62.8435 85.5992C56.5734 85.8036 56.1978 86.9587 53.5833 88.9838C50.9688 91.0088 46.6667 108.388 46.6667 108.388L53.1032 110.442Z" fill="#2699F9"/>
<path d="M65.5672 108.388C65.5672 108.422 65.1441 108.45 64.4548 108.445C63.7703 108.445 62.8196 108.398 61.7785 108.293C60.7375 108.189 59.7963 108.041 59.126 107.908C58.451 107.775 58.0422 107.666 58.0469 107.632C58.0517 107.599 58.4747 107.647 59.1545 107.737C59.8343 107.823 60.766 107.941 61.8023 108.046C62.8386 108.151 63.7798 108.222 64.4596 108.269C65.1394 108.317 65.5625 108.35 65.5625 108.388H65.5672Z" fill="#2699F9"/>
<path d="M67.0124 106.596C67.0219 106.625 66.5845 106.791 65.862 106.991C65.1394 107.186 64.1221 107.404 62.9813 107.542C61.8404 107.675 60.7993 107.704 60.053 107.685C59.3019 107.666 58.8408 107.604 58.8408 107.571C58.8408 107.533 59.3067 107.533 60.053 107.509C60.7993 107.485 61.8261 107.433 62.9527 107.295C64.0794 107.162 65.0919 106.972 65.8239 106.82C66.556 106.667 67.0029 106.563 67.0171 106.596H67.0124Z" fill="#2699F9"/>
<path d="M74.1001 98.6004C74.1334 98.6052 74.0811 99.0187 73.9575 99.6747C73.8339 100.331 73.6438 101.234 73.4014 102.227C73.1589 103.221 72.9117 104.11 72.7168 104.747C72.5219 105.389 72.3793 105.774 72.346 105.769C72.3128 105.759 72.3936 105.355 72.5457 104.704C72.7263 103.963 72.9307 103.112 73.1589 102.17C73.3918 101.229 73.601 100.383 73.7864 99.6415C73.9528 98.995 74.0669 98.5956 74.1001 98.6052V98.6004Z" fill="#2699F9"/>
<path d="M53.3266 109.234C53.3075 109.301 51.8529 108.963 50.0798 108.479C48.3019 107.994 46.8806 107.547 46.8996 107.48C46.9186 107.414 48.3732 107.756 50.1464 108.236C51.9195 108.721 53.3456 109.168 53.3266 109.234Z" fill="#2699F9"/>
<path d="M75.5308 94.6406C75.5308 94.6406 75.3359 94.6739 74.9841 94.6406C74.6371 94.6026 74.1237 94.5218 73.5343 94.2936C72.9448 94.0702 72.2698 93.7042 71.6423 93.1432C71.0148 92.587 70.4539 91.817 70.0974 90.9138C69.7361 90.0106 69.6125 89.0693 69.6695 88.2327C69.7266 87.396 69.9453 86.6402 70.3208 86.1126C70.6916 85.5754 71.1812 85.3187 71.5235 85.2284C71.6946 85.1808 71.8372 85.1713 71.9275 85.1761C72.0226 85.1761 72.0701 85.1903 72.0701 85.1951C72.0701 85.2189 71.8752 85.2094 71.552 85.3187C71.2383 85.4328 70.7914 85.699 70.4634 86.2124C69.8169 87.2297 69.6363 89.0883 70.3256 90.8234C70.6726 91.6934 71.2002 92.4302 71.7944 92.9721C72.3886 93.5188 73.0304 93.8943 73.5961 94.132C74.7369 94.6074 75.5356 94.5883 75.5261 94.6454L75.5308 94.6406Z" fill="#2699F9"/>
<path d="M86.6117 95.0494C86.5451 95.0494 86.4929 93.0862 86.4976 90.6713C86.4976 88.2517 86.5594 86.2885 86.6307 86.2885C86.6973 86.2885 86.7496 88.2517 86.7448 90.6713C86.74 93.0909 86.683 95.0494 86.6117 95.0494Z" fill="#2699F9"/>
<path d="M69.1752 85.2094C69.2275 84.1493 69.3368 82.9514 69.3368 82.9514C69.3368 82.9514 71.9609 82.6614 72.1177 79.9518C72.2746 77.2422 72.1177 70.9912 72.1177 70.9912L67.3403 68.5573L62.0828 72.7025L62.8814 86.2504L67.7158 86.5594C68.4764 86.6069 69.1324 85.9985 69.1705 85.2046L69.1752 85.2094Z" fill="#FFBE9D"/>
<path d="M69.6459 77.8031C69.6459 77.8031 69.6554 77.8554 69.6031 77.922C69.5555 77.9838 69.451 78.0598 69.3036 78.0551C68.9994 78.0408 68.7046 77.7033 68.6 77.2945C68.5478 77.0853 68.5478 76.8762 68.5858 76.6908C68.6191 76.5102 68.7236 76.3295 68.871 76.282C68.9423 76.2535 69.0184 76.2582 69.0707 76.282C69.1277 76.3105 69.161 76.3533 69.18 76.3913C69.2133 76.4721 69.1895 76.5197 69.18 76.5149C69.1705 76.5149 69.1705 76.4721 69.1325 76.4198C69.0944 76.3675 69.0041 76.32 68.909 76.3723C68.8092 76.4198 68.7379 76.5482 68.7141 76.7098C68.6856 76.8714 68.6856 77.0616 68.7379 77.247C68.833 77.613 69.0897 77.9172 69.3131 77.9458C69.4272 77.96 69.5175 77.9172 69.5698 77.8745C69.6221 77.8317 69.6411 77.7936 69.6506 77.7984L69.6459 77.8031Z" fill="#EB996E"/>
<path d="M73.7483 69.527C73.3822 68.2816 72.056 67.6588 70.8485 67.3166C69.0089 66.7937 67.0171 66.5655 65.225 67.2262C63.4281 67.887 61.2699 69.0516 61.2699 71.0339C60.2098 70.9484 59.6061 71.8753 59.1831 73.0257C58.9359 73.7055 58.7695 74.4613 58.7315 75.2124H58.7124C58.5746 77.8031 57.852 81.3827 56.1692 83.3031C55.2375 84.3632 53.9017 85.0953 53.3598 86.4168C52.8892 87.5672 53.1316 88.922 52.6896 90.0818C52.295 91.1039 51.4251 91.8312 50.8024 92.7201C49.4428 94.6596 49.3525 97.3977 50.3508 99.5606C51.349 101.724 53.3266 103.307 55.5227 104.034C57.7189 104.761 60.1148 104.68 62.349 104.096C63.9985 103.668 65.6053 102.955 66.922 101.828C68.2388 100.706 69.2466 99.1423 69.546 97.3977C69.8788 95.4535 69.3369 93.4855 68.9376 91.5555C67.6731 85.4518 68.0344 85.138 69.6316 79.4764C69.6696 79.3766 69.6886 79.272 69.7172 79.1722C69.7362 79.0961 69.7599 79.0248 69.779 78.9488C69.8217 78.7254 69.855 78.5019 69.855 78.269C69.3939 78.4496 68.833 78.3308 68.4812 77.9695C68.1247 77.613 67.9963 77.033 68.158 76.5482C68.3434 75.9872 68.8568 75.6165 69.3844 75.393C69.9121 75.1696 70.4778 75.0603 70.9959 74.8131C72.094 74.2902 72.8546 73.2064 73.3727 72.0702C73.734 71.2764 74.005 70.3637 73.7578 69.5223L73.7483 69.527Z" fill="#263238"/>
<path d="M69.836 77.922C69.836 77.922 69.9454 78.0931 70.088 78.3926C70.2306 78.6921 70.4207 79.1152 70.6299 79.6048L70.6679 79.6951L70.5681 79.7046C70.4112 79.7189 70.2496 79.7331 70.0832 79.7474C69.7505 79.7712 69.4748 79.8092 69.1515 79.8044C69.0992 79.7949 69.0422 79.7474 69.0279 79.6951C69.0089 79.6428 69.0137 79.6 69.0184 79.562C69.0327 79.4859 69.0469 79.4337 69.0612 79.3671L69.1468 79.0296C69.2513 78.6208 69.3274 78.3688 69.3464 78.3736C69.3654 78.3736 69.3274 78.6398 69.2466 79.0534L69.18 79.3956C69.1563 79.5097 69.1135 79.6809 69.18 79.6713C69.4177 79.6618 69.7552 79.6238 70.069 79.6C70.2353 79.5858 70.3922 79.5763 70.5538 79.562L70.492 79.6618C70.2876 79.1722 70.1165 78.7396 69.9977 78.4306C69.8788 78.1217 69.817 77.9315 69.836 77.922Z" fill="#E8505B"/>
<path d="M53.5594 117.948L74.6371 117.306L83.8021 153.12L82.1146 194.201H70.9578L72.3411 153.995L64.1885 129.062L65.4435 195.794L54.1821 195.96L52.9937 133.236C52.9461 131.491 52.3709 127.56 52.5849 125.829L53.5594 117.948Z" fill="#263238"/>
<path d="M66.9982 129.566C66.9982 129.599 66.5989 129.58 65.9667 129.504C65.3344 129.428 64.4597 129.295 63.5043 129.105C62.5488 128.91 61.6931 128.696 61.0799 128.52C60.4667 128.344 60.0959 128.211 60.1006 128.178C60.1196 128.111 61.6503 128.482 63.5518 128.862C65.4533 129.247 67.0077 129.494 66.9982 129.566Z" fill="#455A64"/>
<path d="M82.0149 191.943C82.0149 192.01 79.4907 192.067 76.3723 192.067C73.2539 192.067 70.7297 192.01 70.7297 191.943C70.7297 191.877 73.2539 191.82 76.3723 191.82C79.4907 191.82 82.0149 191.877 82.0149 191.943Z" fill="#455A64"/>
<path d="M65.3484 194.059C65.3484 194.125 62.9003 194.182 59.877 194.182C56.8537 194.182 54.4055 194.125 54.4055 194.059C54.4055 193.992 56.8537 193.935 59.877 193.935C62.9003 193.935 65.3484 193.992 65.3484 194.059Z" fill="#455A64"/>
<path d="M63.894 193.888C63.8275 193.888 63.528 179.308 63.2333 161.325C62.9385 143.337 62.7531 128.753 62.8197 128.753C62.8862 128.753 63.1857 143.332 63.4804 161.32C63.7752 179.303 63.9606 193.888 63.894 193.888Z" fill="#455A64"/>
<path d="M80.5176 191.943C80.5176 191.943 80.5128 191.877 80.5128 191.748C80.5128 191.611 80.5176 191.42 80.5223 191.178C80.5366 190.665 80.5604 189.928 80.5841 188.991C80.6507 187.076 80.7458 184.333 80.8646 180.943C81.1261 174.136 81.4826 164.757 81.8819 154.394C81.8819 154.299 81.8914 154.204 81.8914 154.114V154.147C79.3957 144.145 77.1377 135.104 75.5025 128.548C74.6991 125.283 74.0479 122.64 73.5963 120.795C73.3776 119.887 73.2112 119.179 73.0924 118.685C73.0401 118.452 72.9973 118.271 72.9688 118.133C72.9403 118.01 72.9307 117.943 72.9355 117.943C72.9355 117.943 72.9593 118.005 72.9925 118.128C73.0306 118.262 73.0781 118.442 73.1399 118.67C73.2683 119.165 73.4536 119.868 73.6913 120.771C74.1619 122.611 74.8417 125.249 75.6736 128.506C77.3279 135.056 79.6096 144.093 82.1386 154.09V154.109V154.128C82.1386 154.213 82.1291 154.313 82.1291 154.408C81.706 164.767 81.321 174.15 81.0405 180.953C80.8884 184.337 80.7695 187.085 80.684 188.996C80.6364 189.937 80.5984 190.669 80.5746 191.183C80.5604 191.425 80.5461 191.611 80.5413 191.753C80.5318 191.881 80.5271 191.948 80.5223 191.948L80.5176 191.943Z" fill="#455A64"/>
<path d="M76.8808 153.282C76.8903 153.348 75.7874 153.596 74.4184 153.828C73.3916 154.004 72.5074 154.123 72.1223 154.147V154.052C72.2507 154.085 72.3173 154.114 72.3173 154.133C72.3173 154.152 72.2412 154.156 72.1081 154.152L71.8181 154.137L72.1033 154.052C72.4741 153.943 73.3488 153.762 74.3756 153.586C75.7494 153.348 76.8713 153.215 76.8808 153.282Z" fill="#455A64"/>
<path d="M76.6671 154.646C76.6576 154.713 75.6689 154.637 74.4472 154.546C73.2255 154.451 72.2367 154.37 72.2415 154.304C72.2415 154.237 73.2397 154.204 74.4709 154.304C75.6974 154.399 76.6814 154.584 76.6719 154.651L76.6671 154.646Z" fill="#455A64"/>
<path opacity="0.2" d="M53.4692 118.704C53.9779 119.421 54.7052 119.673 55.5513 119.811C56.3975 119.949 57.2579 119.859 58.1088 119.764C63.5517 119.16 69.3132 118.604 74.642 117.306C67.7445 117.691 60.4619 117.563 53.5643 117.948C53.5643 117.948 53.5073 118.423 53.493 118.537" fill="black"/>
<g opacity="0.2">
<path d="M60.5759 128.425L64.4644 143.508L64.1935 129.062L60.5759 128.425Z" fill="black"/>
</g>
</g>
<defs>
<clipPath id="clip0_188_66">
<rect width="203.081" height="199.34" fill="white"/>
</clipPath>
</defs>
</svg>
