<svg width="20" height="33" viewBox="0 0 20 33" fill="none" xmlns="http://www.w3.org/2000/svg">
<path d="M0 16.405C0 14.5603 0 12.7157 0 10.871C0.00136715 9.08269 0 7.29437 0.00546859 5.50606C0.00820289 4.56695 -0.00410144 3.62517 0.0355458 2.68741C0.073826 1.76441 0.520883 1.04935 1.3152 0.542237C1.73354 0.275264 2.1888 0.111593 2.67961 0.0579297C3.046 0.0176825 3.41787 0.00829153 3.787 0.00560839C4.97232 -0.00109947 6.15763 0.000242098 7.34158 0.00158367C8.7183 0.00292524 10.0937 0.0109747 11.4704 0.0109747C12.802 0.0109747 14.1349 0.000242098 15.4665 0.00292524C15.956 0.00426682 16.4454 0.025732 16.9335 0.0512218C17.2302 0.0673207 17.5296 0.0874443 17.8208 0.141107C18.4893 0.267215 18.9924 0.64688 19.3697 1.19022C19.8072 1.81941 19.9768 2.53045 19.9795 3.28307C19.9822 4.58574 19.9727 5.88706 19.9727 7.18973C19.9713 9.47174 19.974 11.7538 19.9699 14.0371C19.9672 15.6846 19.9549 17.3334 19.9494 18.9808C19.9494 19.1163 19.9713 19.2518 19.9699 19.386C19.9686 19.7871 19.9535 20.1896 19.9563 20.5907C19.9604 21.067 19.9836 21.5432 19.9863 22.0181C19.9891 22.4072 19.974 22.7962 19.9672 23.184C19.9604 23.5636 19.948 23.9446 19.9494 24.3243C19.9508 24.8395 19.9672 25.356 19.9713 25.8711C19.9822 26.9323 19.9904 27.9935 19.9986 29.0547C20.0041 29.7147 19.9932 30.3761 19.7826 31.0093C19.4203 32.096 18.6534 32.7534 17.4995 32.9077C16.8856 32.9895 16.2568 32.9855 15.6333 32.9909C14.3865 33.0029 13.1383 32.9989 11.8901 32.9935C10.3794 32.9882 8.87005 32.9667 7.35936 32.9667C6.00588 32.9667 4.65104 32.9882 3.29756 32.9935C2.87648 32.9949 2.45266 33.0016 2.04252 32.8701C1.46695 32.6863 1.02399 32.3362 0.664434 31.8666C0.347256 31.4521 0.165425 30.9865 0.0697245 30.4848C0.0451159 30.352 0.0287101 30.2165 0.0287101 30.0823C0.027343 28.1907 0.0287101 26.2977 0.027343 24.4034C0.0259758 23.0525 0.0232415 21.7015 0.0191401 20.3519C0.0150386 19.1284 0.00820289 17.9035 0.0027343 16.68C0.0027343 16.5888 0.0027343 16.4962 0.0027343 16.405C0.00136715 16.405 0.00136715 16.405 0 16.405ZM0.998018 28.1156C1.07458 28.1156 1.11833 28.1156 1.16208 28.1156C1.43414 28.1102 1.70483 28.1008 1.9769 28.1022C4.32976 28.1062 6.68125 28.1169 9.03411 28.1169C11.9612 28.1169 14.8882 28.1075 17.8153 28.1008C18.1366 28.0995 18.4565 28.0901 18.7778 28.0887C18.9049 28.0887 18.9801 28.0445 18.9869 27.9103C18.9965 27.7319 19.0239 27.5535 19.0225 27.375C19.0157 26.562 18.9938 25.749 18.9897 24.9374C18.9856 24.2639 18.9992 23.5918 19.0047 22.9183C19.0157 21.4842 19.0348 20.05 19.0348 18.6172C19.0362 16.9564 19.017 15.2955 19.0143 13.6333C19.0129 12.6459 19.0266 11.6572 19.0307 10.6698C19.0375 9.16586 19.0567 7.66196 19.0444 6.15806C19.0348 5.02711 18.9938 3.89483 18.9514 2.76388C18.9282 2.13468 18.6301 1.65038 18.0723 1.32706C17.7524 1.14192 17.3997 1.03594 17.0347 1.0252C16.4837 1.00776 15.9327 1.03057 15.3818 1.04264C15.2013 1.04667 15.1398 1.11241 15.1289 1.29486C15.1152 1.52963 15.1275 1.76575 15.1015 1.99918C15.0619 2.3547 14.7707 2.66192 14.4097 2.72095C14.0912 2.77327 13.7672 2.82023 13.4445 2.82157C12.3084 2.82962 11.1723 2.81754 10.0376 2.81486C9.15169 2.81352 8.26441 2.81889 7.3785 2.81218C6.86582 2.80815 6.3545 2.78937 5.84182 2.77059C5.71468 2.76522 5.57113 2.76522 5.46312 2.71156C5.15415 2.55728 4.91763 2.32787 4.86705 1.97235C4.84107 1.78722 4.8438 1.59805 4.8397 1.41158C4.83423 1.15534 4.74537 1.05203 4.48424 1.03594C4.28464 1.02386 4.08367 1.02252 3.88407 1.02118C3.38096 1.01581 2.87785 1.00642 2.38431 1.12448C1.56402 1.31901 1.12516 1.87844 1.00212 2.67265C0.925559 3.16501 0.950168 3.67481 0.943332 4.1779C0.92966 5.40812 0.914622 6.64103 0.914622 7.87259C0.915989 9.95739 0.926926 12.0435 0.93923 14.1283C0.941965 14.504 0.980245 14.8783 0.984346 15.2526C0.988448 15.6457 0.962472 16.0387 0.962472 16.4318C0.962472 18.691 0.969308 20.9502 0.966573 23.2094C0.965206 24.5255 0.947433 25.8416 0.946066 27.1564C0.946066 27.473 0.980245 27.7896 0.998018 28.1156ZM10.4204 29.4558C10.4204 29.4384 10.4204 29.4209 10.4204 29.4048C10.0731 29.4048 9.72589 29.4008 9.37863 29.4062C8.82357 29.4142 8.26851 29.429 7.71755 29.5256C7.24588 29.6074 7.01483 30.1118 7.14745 30.5089C7.23905 30.784 7.48923 31.0979 7.84059 31.1126C8.2357 31.1301 8.62944 31.173 9.02454 31.1811C10.0608 31.1999 11.0985 31.2066 12.1334 31.1126C12.6789 31.063 12.9318 30.4794 12.8471 30.1239C12.75 29.7201 12.3987 29.4625 11.9284 29.4571C11.4266 29.4518 10.9235 29.4558 10.4204 29.4558Z" fill="#4BABE7"/>
<path d="M17.1605 15.1089C17.2001 15.5261 17.0361 15.8964 16.8706 16.2626C16.5726 16.9227 16.1994 17.5411 15.7824 18.1341C15.2342 18.9149 14.634 19.6568 13.9873 20.3611C13.6141 20.7663 13.2368 21.1674 12.8471 21.5578C12.318 22.0864 11.7042 22.517 11.0849 22.9342C10.5066 23.3233 9.91869 23.7003 9.31715 24.0545C8.77302 24.3738 8.21796 24.6716 7.62051 24.897C7.1885 25.0606 6.75511 25.1492 6.29575 25.1264C5.91295 25.1062 5.55339 25.0016 5.20887 24.8433C4.76181 24.6394 4.31065 24.4368 3.94152 24.1068C3.63118 23.8304 3.4138 23.4937 3.35228 23.0791C3.314 22.8229 3.36322 22.5747 3.52454 22.3721C4.18897 21.5336 4.98192 20.8454 5.97173 20.392C6.67855 20.0686 7.31154 20.3356 7.69707 20.887C7.84063 21.0923 7.97187 21.3042 8.10038 21.5189C8.25487 21.7765 8.48318 21.8288 8.76345 21.7859C9.34996 21.696 9.8517 21.4196 10.3316 21.099C10.996 20.6549 11.5825 20.125 12.1335 19.5481C12.4958 19.1671 12.8635 18.7968 13.1288 18.342C13.3516 17.9597 13.5799 17.58 13.677 17.144C13.7358 16.877 13.6893 16.7603 13.4541 16.6168C13.2245 16.4773 12.9838 16.3525 12.7583 16.2049C12.4889 16.0278 12.2538 15.8132 12.1663 15.4899C12.0719 15.1437 12.143 14.8124 12.3071 14.5051C12.6434 13.8733 13.0932 13.3205 13.6182 12.8309C13.8424 12.6216 14.0844 12.4203 14.3455 12.2607C15.0045 11.8582 15.3476 11.9374 15.8931 12.4096C16.6136 13.0348 17.0032 13.8464 17.1577 14.7694C17.1769 14.8794 17.1605 14.9948 17.1605 15.1089Z" fill="#4BABE7"/>
<path d="M2.29823 13.6559C2.25448 11.6234 4.14935 9.85928 6.25065 9.88342C8.02931 9.90355 10.0814 11.2827 10.0705 13.6761C10.0609 15.8923 8.27403 17.4418 6.26159 17.4405C4.06595 17.4392 2.27635 15.8427 2.29823 13.6559ZM6.17819 16.4759C7.66838 16.4813 9.0533 15.3436 9.08612 13.6519C9.11893 11.9803 7.54807 10.8494 6.13444 10.8587C4.58 10.8695 3.28668 12.1574 3.28941 13.7042C3.28941 15.082 4.5841 16.5054 6.17819 16.4759Z" fill="#4BABE7"/>
<path d="M6.21921 11.5121C6.37096 11.5121 6.52135 11.5094 6.6731 11.5121C6.8563 11.5162 6.88091 11.5551 6.87954 11.7321C6.87681 12.0622 6.87817 12.3935 6.89868 12.7236C6.91098 12.9181 7.02446 13.0066 7.22816 13.004C7.38265 13.0026 7.53714 12.9731 7.69299 12.9677C7.85158 12.9624 8.01154 12.9597 8.16876 12.9771C8.30274 12.9919 8.39024 13.0952 8.39161 13.22C8.39434 13.5594 8.38067 13.9001 8.3629 14.2395C8.35743 14.3308 8.2877 14.3804 8.1838 14.3737C7.94455 14.3603 7.70393 14.3469 7.46468 14.3429C7.33617 14.3402 7.20766 14.3603 7.07914 14.3657C6.9561 14.371 6.87817 14.4394 6.87544 14.5481C6.8686 14.7815 6.88364 15.0163 6.88501 15.2511C6.88638 15.3853 6.88364 15.5208 6.8727 15.6536C6.86587 15.7408 6.80435 15.8025 6.71548 15.8052C6.38737 15.8105 6.05925 15.8213 5.7325 15.8038C5.54247 15.7944 5.46454 15.6898 5.46181 15.4818C5.46044 15.2685 5.48368 15.0566 5.49599 14.8433C5.49599 14.8352 5.50146 14.8272 5.50282 14.8178C5.56161 14.5038 5.46044 14.3777 5.13369 14.3683C4.88897 14.3616 4.64425 14.3683 4.39954 14.3657C4.32024 14.3643 4.24095 14.3522 4.16165 14.3402C4.04681 14.3227 3.96478 14.2516 3.96342 14.143C3.96205 13.817 3.96478 13.491 3.99213 13.1663C4.0058 13.0013 4.13021 12.9208 4.30657 12.9288C4.4966 12.9382 4.68527 12.9731 4.8753 12.9879C4.99835 12.9973 5.12412 13.0026 5.24717 12.9919C5.41943 12.9771 5.48095 12.9101 5.48095 12.737C5.47958 12.5062 5.46454 12.2755 5.45634 12.0434C5.45361 11.9736 5.4495 11.9025 5.45907 11.8341C5.48778 11.606 5.57391 11.4732 5.84598 11.4947C5.97039 11.5041 6.0948 11.496 6.21921 11.496C6.21921 11.5041 6.21921 11.5081 6.21921 11.5121Z" fill="#4BABE7"/>
</svg>
