<svg width="34" height="34" viewBox="0 0 34 34" fill="none" xmlns="http://www.w3.org/2000/svg">
<path d="M21.8004 33.9995C14.7341 33.9995 7.66977 33.9995 0.603451 33.9995C0.404314 33.5732 0.0342025 33.145 0.0321911 32.7167C7.43039e-06 23.526 0.0120763 14.3354 7.43009e-06 5.14474C-0.00200405 4.21381 0.404314 3.79559 1.31753 3.81168C2.13418 3.82374 2.95084 3.81369 3.8198 3.81369C3.8198 2.96922 3.81779 2.27153 3.8198 1.57584C3.82584 0.250828 4.07124 0.00150798 5.38473 0.00150798C11.7772 -0.000502661 18.1697 -0.000502661 24.5622 0.00150798C25.8495 0.00150798 26.119 0.270934 26.1231 1.59193C26.1311 4.18968 26.1231 6.78743 26.1291 9.38519C26.1291 9.71895 26.1633 10.0527 26.1995 10.6981C27.169 9.68678 27.8932 8.90665 28.6455 8.15266C29.5144 7.28004 30.5684 7.01062 31.7612 7.30417C32.8977 7.58365 33.4569 8.48442 34 9.39926C34 9.99843 34 10.5996 34 11.1988C33.473 11.8643 32.9963 12.5821 32.4089 13.1893C30.5564 15.0974 28.6354 16.9392 26.8009 18.8654C26.4389 19.2474 26.1693 19.8808 26.1573 20.4035C26.0929 23.1279 26.1331 25.8564 26.1251 28.5828C26.1211 29.8797 25.8193 30.1732 24.5501 30.1813C23.8038 30.1853 23.0556 30.1813 22.4903 30.1813C22.2349 31.5827 22.0176 32.7911 21.8004 33.9995ZM23.9808 21.7889C23.4076 22.2191 22.9852 22.6997 22.4561 22.8987C21.1547 23.3913 19.811 23.7854 18.4694 24.1594C17.3188 24.4811 16.7234 23.8437 17.0553 22.6735C17.345 21.6521 17.6185 20.6146 18.0309 19.6395C18.3567 18.8694 18.7792 18.0893 19.3384 17.478C20.6418 16.0545 22.082 14.7556 23.3995 13.3441C23.7415 12.9782 24.007 12.3871 24.017 11.8925C24.0734 8.92877 24.0472 5.96307 24.0432 2.99737C24.0432 2.67969 24.009 2.362 23.9909 2.05035C17.9122 2.05035 11.9341 2.05035 5.9218 2.05035C5.9218 10.7504 5.9218 19.3922 5.9218 28.0902C11.9683 28.0902 17.9444 28.0902 23.9829 28.0902C23.9808 25.9931 23.9808 23.9483 23.9808 21.7889ZM2.07183 5.8927C2.07183 14.6109 2.07183 23.2787 2.07183 31.9265C8.15454 31.9265 14.1628 31.9265 20.1671 31.9265C20.1671 31.3294 20.1671 30.8086 20.1671 30.1813C19.7628 30.1813 19.4067 30.1813 19.0487 30.1813C14.553 30.1813 10.0574 30.1813 5.55973 30.1813C4.06721 30.1813 3.8198 29.936 3.8198 28.4541C3.81779 21.3264 3.8198 14.1967 3.8198 7.06892C3.8198 6.68489 3.8198 6.30086 3.8198 5.89471C3.14998 5.8927 2.63102 5.8927 2.07183 5.8927ZM22.7538 19.8627C22.9047 19.7501 23.0757 19.6535 23.2104 19.5188C25.9662 16.7683 28.7239 14.0177 31.4676 11.2551C32.238 10.479 32.1374 9.47768 31.2322 9.30275C30.8219 9.22433 30.2043 9.50985 29.8765 9.83155C27.1389 12.5057 24.4455 15.2261 21.7441 17.9365C21.5892 18.0913 21.4705 18.2843 21.3036 18.4994C21.7763 18.9458 22.2128 19.354 22.7538 19.8627ZM19.4932 21.7305C20.1631 21.4953 20.5714 21.3505 20.9737 21.2098C20.6518 20.8077 20.3944 20.49 20.0343 20.0396C19.8352 20.6649 19.7024 21.0791 19.4932 21.7305Z" fill="#4BABE7"/>
<path d="M14.897 5.85034C16.5585 5.85034 18.22 5.85637 19.8795 5.84833C20.6539 5.84431 21.3619 6.02527 21.3358 6.93609C21.3116 7.78056 20.6177 7.9394 19.8895 7.93739C16.6008 7.93136 13.312 7.93538 10.0232 7.93337C9.30111 7.93337 8.62726 7.78257 8.62525 6.89588C8.62324 6.01119 9.28501 5.84833 10.0132 5.84833C11.6405 5.85034 13.2677 5.85034 14.897 5.85034Z" fill="#4BABE7"/>
<path d="M14.9433 13.3802C13.2778 13.3802 11.6103 13.3742 9.94481 13.3822C9.23275 13.3862 8.64741 13.1872 8.62327 12.3708C8.59913 11.5264 9.19453 11.3474 9.90458 11.3474C13.2698 11.3514 16.635 11.3555 20.0002 11.3434C20.7163 11.3414 21.3378 11.5324 21.3358 12.3326C21.3338 13.1751 20.6982 13.3902 19.9378 13.3822C18.2763 13.3681 16.6088 13.3802 14.9433 13.3802Z" fill="#4BABE7"/>
<path d="M12.793 18.7989C11.8275 18.7989 10.86 18.7868 9.89445 18.8029C9.16831 18.8149 8.60509 18.6099 8.62119 17.7734C8.63527 17.0034 9.16227 16.7943 9.8502 16.7983C11.8154 16.8083 13.7806 16.8083 15.7479 16.7983C16.4418 16.7943 16.9608 17.0255 16.9769 17.7815C16.993 18.5375 16.4961 18.8089 15.7921 18.8009C14.7924 18.7908 13.7927 18.7989 12.793 18.7989Z" fill="#4BABE7"/>
<path d="M12.0065 24.2477C11.2401 24.2477 10.4537 24.3543 9.71746 24.2055C9.30913 24.1231 8.75999 23.6606 8.67953 23.2826C8.54879 22.6553 9.05769 22.2411 9.71746 22.2311C11.2824 22.2069 12.8473 22.215 14.4122 22.225C15.076 22.229 15.5266 22.595 15.5286 23.2505C15.5306 23.918 15.07 24.2477 14.4042 24.2518C13.6056 24.2558 12.8071 24.2538 12.0065 24.2538C12.0065 24.2497 12.0065 24.2477 12.0065 24.2477Z" fill="#4BABE7"/>
</svg>
