<svg width="24" height="35" viewBox="0 0 24 35" fill="none" xmlns="http://www.w3.org/2000/svg">
<g clip-path="url(#clip0_17_35)">
<path d="M24 29.0041C24 21.1824 24.0018 13.3607 24 5.53895C24 4.20433 22.9512 3.17311 21.6031 3.1695C20.6088 3.16589 19.6126 3.1695 18.6183 3.1695C18.5185 3.1695 18.4187 3.1695 18.3189 3.1695C18.2899 2.58075 18.1864 2.48684 17.6022 2.48864C17.379 2.48864 17.1558 2.48864 16.9326 2.48864C16.1706 2.48864 15.4103 2.48864 14.6246 2.48864C14.5539 1.80959 14.3198 1.21542 13.8317 0.745868C13.3436 0.278118 12.7612 0.0252803 12.0807 0.00360845C11.5037 -0.0144514 10.9775 0.140863 10.5058 0.467747C9.8054 0.953557 9.46428 1.64886 9.37174 2.48864C8.34293 2.48864 7.33953 2.48864 6.33432 2.48864C5.81901 2.48864 5.68836 2.61868 5.69018 3.1695C5.57587 3.1695 5.47426 3.1695 5.37446 3.1695C4.40735 3.1695 3.44024 3.1695 2.47312 3.17131C1.01429 3.17311 0 4.17905 0 5.62925C0 14.6086 0 23.588 0 32.5655C0 33.976 1.02518 34.9964 2.44772 34.9964C8.81833 34.9982 15.1889 34.9982 21.5595 34.9964C22.9766 34.9964 23.9964 33.9706 24 32.5583C24.0018 31.3736 24 30.1888 24 29.0041ZM12.01 1.26599C12.4582 1.2696 12.8319 1.64164 12.8301 2.07869C12.8265 2.52838 12.4346 2.90402 11.9791 2.89319C11.5364 2.88235 11.1644 2.49767 11.1753 2.06063C11.1844 1.61635 11.5564 1.26238 12.01 1.26599ZM22.2817 32.412C22.2817 33.0875 22.0803 33.2897 21.4035 33.2897C15.1363 33.2897 8.86732 33.2897 2.60014 33.2897C1.92152 33.2897 1.72012 33.0893 1.72012 32.412C1.72012 23.5067 1.72012 14.6032 1.72012 5.69788C1.72012 5.09649 1.93967 4.87796 2.54207 4.87616C3.63983 4.87616 4.73758 4.88157 5.83352 4.87074C6.03856 4.86893 6.10388 4.94298 6.14017 5.12538C6.26174 5.75025 6.39601 6.37512 6.52665 6.99819C6.60286 7.35758 6.74439 7.48219 7.11817 7.48942C7.60082 7.49664 8.08528 7.49303 8.56793 7.49303C11.2933 7.49303 14.0168 7.49303 16.7421 7.49303C17.2738 7.49303 17.3899 7.40454 17.5006 6.89164C17.6421 6.23245 17.7746 5.57146 17.9179 4.87255C18.7253 4.87255 19.5056 4.87255 20.2858 4.87255C20.6958 4.87255 21.1041 4.87255 21.5142 4.87616C22.0422 4.87977 22.2799 5.11455 22.2817 5.64009C22.2835 7.89938 22.2817 10.1569 22.2817 12.4161C22.2817 19.0838 22.2817 25.7479 22.2817 32.412Z" fill="#4BABE7"/>
<path d="M11.999 17.7167C14.278 17.7167 16.1287 15.8746 16.1324 13.6045C16.136 11.3253 14.3052 9.49406 12.0153 9.48503C9.72729 9.4742 7.87471 11.3019 7.86745 13.5738C7.8602 15.862 9.70914 17.7167 11.999 17.7167ZM9.15754 12.7557C9.82164 12.7557 10.4767 12.7557 11.1516 12.7557C11.1516 12.0748 11.1516 11.4301 11.1516 10.7637C11.7159 10.7637 12.2567 10.7637 12.8427 10.7637C12.8427 11.4247 12.8427 12.0694 12.8427 12.7503C13.5159 12.7503 14.1709 12.7503 14.8423 12.7503C14.8423 13.3264 14.8423 13.8664 14.8423 14.4407C14.18 14.4407 13.525 14.4407 12.85 14.4407C12.85 15.1179 12.85 15.7626 12.85 16.4254C12.2857 16.4254 11.7413 16.4254 11.1662 16.4254C11.1662 15.7807 11.1662 15.1287 11.1662 14.4461C10.4803 14.4461 9.82708 14.4461 9.15754 14.4461C9.15754 13.8736 9.15754 13.3318 9.15754 12.7557Z" fill="#4BABE7"/>
<path d="M5.33275 22.1107C7.55367 22.1107 9.77458 22.1107 11.9955 22.1107C14.2345 22.1107 16.4754 22.1089 18.7145 22.1143C18.9776 22.1143 19.1917 22.0421 19.3459 21.8326C19.5745 21.5219 19.5999 21.1842 19.4366 20.8375C19.286 20.5142 19.0139 20.3986 18.6655 20.4004C14.2237 20.4022 9.78184 20.4022 5.34001 20.4022C4.79204 20.4022 4.46725 20.7255 4.46362 21.2583C4.46362 21.791 4.78841 22.1107 5.33275 22.1107Z" fill="#4BABE7"/>
<path d="M18.6672 24.6083C16.4554 24.6155 14.2435 24.6119 12.0317 24.6119C9.79264 24.6119 7.55177 24.6137 5.31271 24.6101C5.05505 24.6101 4.83187 24.6715 4.67039 24.8756C4.43088 25.179 4.3964 25.5203 4.54882 25.8689C4.69397 26.1994 4.96615 26.3294 5.33267 26.3294C7.82394 26.3222 10.3134 26.3258 12.8047 26.3258C14.7661 26.3258 16.7257 26.324 18.6872 26.3276C18.9448 26.3276 19.168 26.2662 19.3295 26.0621C19.569 25.7587 19.6035 25.4174 19.4492 25.0706C19.3041 24.7383 19.0337 24.6083 18.6672 24.6083Z" fill="#4BABE7"/>
<path d="M18.6691 28.8271C16.4463 28.8271 14.2236 28.8271 12.0009 28.8271C9.77817 28.8271 7.55544 28.8307 5.33272 28.8235C4.99341 28.8217 4.73939 28.9301 4.57245 29.2317C4.30573 29.7157 4.52891 30.5482 5.34723 30.5446C9.78361 30.5284 14.22 30.5374 18.6564 30.5356C19.208 30.5356 19.5328 30.2177 19.5364 29.6832C19.5382 29.1504 19.2134 28.8271 18.6691 28.8271Z" fill="#4BABE7"/>
</g>
<defs>
<clipPath id="clip0_17_35">
<rect width="24" height="35" fill="white"/>
</clipPath>
</defs>
</svg>
